<?xml version="1.0" encoding="UTF-8"?>
<svg version="1.1" xmlns="http://www.w3.org/2000/svg" width="415" height="123">
<path d="M0 0 C1.27423828 -0.00193359 1.27423828 -0.00193359 2.57421875 -0.00390625 C3.46753906 -0.00003906 4.36085937 0.00382813 5.28125 0.0078125 C6.62123047 0.00201172 6.62123047 0.00201172 7.98828125 -0.00390625 C8.83777344 -0.00261719 9.68726563 -0.00132812 10.5625 0 C11.34689453 0.00112793 12.13128906 0.00225586 12.93945312 0.00341797 C14.78125 0.1328125 14.78125 0.1328125 15.78125 1.1328125 C15.87621708 3.53629536 15.90683862 5.91092232 15.89477539 8.31469727 C15.89492142 9.06586823 15.89506744 9.81703918 15.8952179 10.5909729 C15.89451863 13.08541709 15.88672564 15.57978753 15.87890625 18.07421875 C15.87704212 19.79914814 15.87561819 21.52407807 15.87461853 23.24900818 C15.87079297 27.79793753 15.86096238 32.34683517 15.84991455 36.89575195 C15.83970124 41.53401256 15.83512108 46.17227827 15.83007812 50.81054688 C15.81934014 59.91798272 15.80226327 69.02539498 15.78125 78.1328125 C17.04598145 78.28443848 18.31071289 78.43606445 19.61376953 78.59228516 C22.74869153 78.96812432 25.64857205 79.51238884 28.65625 80.5078125 C29.39617187 80.74242188 30.13609375 80.97703125 30.8984375 81.21875 C32.78125 82.1328125 32.78125 82.1328125 34.78125 85.1328125 C35.03885279 87.82733771 34.87025053 90.41829625 34.78125 93.1328125 C30.45802939 95.28548184 26.60890812 95.33635651 21.890625 95.14453125 C21.14540588 95.12187698 20.40018677 95.09922272 19.63238525 95.07588196 C18.06562652 95.02612093 16.4990244 94.97118933 14.93261719 94.91137695 C12.52563649 94.82009962 10.11856927 94.7456648 7.7109375 94.67382812 C6.18746718 94.62337725 4.66402789 94.57197854 3.140625 94.51953125 C2.05633209 94.48505135 2.05633209 94.48505135 0.95013428 94.44987488 C-4.10242864 94.24913386 -4.10242864 94.24913386 -5.21875 93.1328125 C-5.37661308 91.28106544 -5.46982356 89.4237214 -5.53515625 87.56640625 C-5.59799805 85.8793457 -5.59799805 85.8793457 -5.66210938 84.15820312 C-5.70142578 82.97419922 -5.74074219 81.79019531 -5.78125 80.5703125 C-5.84602539 78.78850586 -5.84602539 78.78850586 -5.91210938 76.97070312 C-6.01858546 74.02486466 -6.12059841 71.0789382 -6.21875 68.1328125 C-6.58637451 68.96159912 -6.95399902 69.79038574 -7.33276367 70.64428711 C-12.86774991 82.88129321 -20.58068495 90.35729534 -33.21875 95.1328125 C-46.01373284 97.85690562 -57.08975043 95.79603517 -68.21875 89.1328125 C-76.25678936 83.54609011 -81.7188045 75.63260541 -84.21875 66.1328125 C-84.58226563 67.11121094 -84.58226563 67.11121094 -84.953125 68.109375 C-86.91207715 73.21771944 -88.8156157 77.82217572 -92.21875 82.1328125 C-92.87875 82.1328125 -93.53875 82.1328125 -94.21875 82.1328125 C-95.6793785 84.78020166 -96.21875 86.02729584 -96.21875 89.1328125 C-97.82953044 96.91058093 -101.62928005 102.64150014 -107.94921875 107.44921875 C-116.52558965 112.76774624 -124.82905261 112.70679137 -134.3828125 110.671875 C-140.84301138 108.690061 -146.96502558 103.83535977 -150.4765625 98.06640625 C-151.21875 96.1328125 -151.21875 96.1328125 -151.21875 93.1328125 C-147.58050478 93.67949183 -145.37703143 94.57159706 -142.40625 96.6953125 C-135.94989325 100.38619644 -128.41631052 100.27864016 -121.21875 99.1328125 C-116.99237525 97.83856891 -113.12077773 96.20206963 -109.21875 94.1328125 C-109.7967334 94.29289795 -110.3747168 94.4529834 -110.97021484 94.61791992 C-120.77554145 96.8632439 -132.47427622 96.15697338 -141.21875 91.1328125 C-142.270625 90.5346875 -143.3225 89.9365625 -144.40625 89.3203125 C-152.59215099 82.95350062 -159.80160562 74.80863348 -161.21875 64.1328125 C-161.94954235 50.92233544 -160.8230452 40.68242662 -152.21875 30.1328125 C-144.0806602 21.63302982 -135.98942024 17.21207166 -124.21875 16.1328125 C-113.75232199 16.1328125 -104.39142293 19.71500799 -96.21875 26.1328125 C-95.61933594 26.5865625 -95.01992187 27.0403125 -94.40234375 27.5078125 C-93.21875 29.1328125 -93.21875 29.1328125 -93.26171875 31.546875 C-94.45179605 34.76251243 -95.9665621 36.24954394 -98.53125 38.5078125 C-99.31113281 39.21679688 -100.09101562 39.92578125 -100.89453125 40.65625 C-103.21875 42.1328125 -103.21875 42.1328125 -105.28515625 41.984375 C-107.22203325 41.13136654 -109.02811155 40.22059589 -110.84375 39.1328125 C-116.50747954 35.77652833 -120.65783131 35.49531433 -127.21875 36.1328125 C-132.51077566 37.74228807 -136.34304587 40.33997228 -139.21875 45.1328125 C-142.04483558 51.17357044 -143.09424647 56.64336459 -141.21875 63.1328125 C-138.73336669 68.71749851 -135.65475592 72.17846146 -130.21875 75.1328125 C-124.75677003 76.95347249 -118.94074975 77.34349299 -113.6015625 74.96875 C-108.97046155 72.00788218 -107.16172448 70.03776997 -104.21875 65.1328125 C-109.49875 65.1328125 -114.77875 65.1328125 -120.21875 65.1328125 C-121.52334914 62.52361422 -121.3514094 60.54338635 -121.34375 57.6328125 C-121.34632812 56.653125 -121.34890625 55.6734375 -121.3515625 54.6640625 C-121.21875 52.1328125 -121.21875 52.1328125 -120.21875 50.1328125 C-108.66875 49.8028125 -97.11875 49.4728125 -85.21875 49.1328125 C-83.89875 45.5028125 -82.57875 41.8728125 -81.21875 38.1328125 C-75.89295441 29.1381355 -70.11850997 22.03720382 -60.21875 18.1328125 C-58.86523438 17.59720703 -58.86523438 17.59720703 -57.484375 17.05078125 C-47.46755679 14.23504886 -35.35030201 15.12660794 -26.21875 20.1328125 C-17.10782258 26.03063856 -10.12690455 33.92340436 -6.21875 44.1328125 C-6.19369385 42.83545166 -6.1686377 41.53809082 -6.14282227 40.20141602 C-6.04893248 35.40622394 -5.94866751 30.611183 -5.84643555 25.81616211 C-5.80301666 23.73742193 -5.76134688 21.65864447 -5.72143555 19.57983398 C-5.66390079 16.59868105 -5.60015881 13.61771701 -5.53515625 10.63671875 C-5.51844376 9.70130753 -5.50173126 8.7658963 -5.48451233 7.80213928 C-5.46456711 6.94132248 -5.44462189 6.08050568 -5.42407227 5.19360352 C-5.40852798 4.43193375 -5.3929837 3.67026398 -5.37696838 2.88551331 C-5.06229685 -0.60033349 -3.01432361 0.00433448 0 0 Z " fill="#F7EFE0" transform="translate(167.21875,6.8671875)"/>
<path d="M0 0 C3.11942318 1.03599425 3.96557531 1.94064374 5.64404297 4.8347168 C6.17143066 6.02750244 6.69881836 7.22028809 7.2421875 8.44921875 C7.5330423 9.09889114 7.82389709 9.74856354 8.12356567 10.41792297 C9.05287 12.50262781 9.96376406 14.59484448 10.875 16.6875 C11.47934856 18.04542098 12.08480749 19.40284835 12.69140625 20.75976562 C15.60481799 27.3142027 18.38796506 33.90491975 21.0078125 40.58203125 C24.01712664 48.21129989 27.45545638 55.60679512 31 63 C31.01030746 62.22547989 31.02061493 61.45095978 31.03123474 60.65296936 C31.12904297 53.36871079 31.23153311 46.08454054 31.33933926 38.80042362 C31.39460231 35.05521202 31.44802755 31.30999266 31.49731445 27.56469727 C31.54490835 23.95311414 31.59724906 20.34162868 31.65294075 16.73016167 C31.67338694 15.34942481 31.69209622 13.96866114 31.70907402 12.58787727 C31.7330678 10.66016686 31.76370264 8.73254251 31.79467773 6.80493164 C31.81022202 5.70572891 31.8257663 4.60652618 31.84178162 3.47401428 C32 1 32 1 33 0 C34.83115883 -0.09851171 36.66619933 -0.12972629 38.5 -0.125 C39.5003125 -0.12757812 40.500625 -0.13015625 41.53125 -0.1328125 C44 0 44 0 45 1 C45.09376053 2.81055025 45.1174411 4.62477201 45.11352539 6.43774414 C45.11344986 7.59887222 45.11337433 8.76000031 45.11329651 9.95631409 C45.10813522 11.219832 45.10297394 12.48334991 45.09765625 13.78515625 C45.09553383 15.71408974 45.09553383 15.71408974 45.09336853 17.68199158 C45.08954418 21.10643443 45.07971462 24.53083509 45.06866455 27.95526123 C45.05844864 31.44738189 45.05387053 34.93950934 45.04882812 38.43164062 C45.03809226 45.28777953 45.02049614 52.1438834 45 59 C51.93 59 58.86 59 66 59 C68.26562116 64.6640529 68.14440994 66.27795028 67 72 C64.72434378 73.13782811 63.4183298 73.14368888 60.88916016 73.17700195 C59.6174144 73.19625481 59.6174144 73.19625481 58.31997681 73.21589661 C57.40227509 73.22328354 56.48457336 73.23067047 55.5390625 73.23828125 C54.59694916 73.246353 53.65483582 73.25442474 52.68417358 73.26274109 C50.68855634 73.2765842 48.6929154 73.28730534 46.69726562 73.29516602 C43.64407604 73.31239237 40.59196542 73.3562778 37.5390625 73.40039062 C35.60157047 73.41051626 33.66406923 73.41903277 31.7265625 73.42578125 C30.35608261 73.45204338 30.35608261 73.45204338 28.95791626 73.47883606 C22.62551768 73.45714644 22.62551768 73.45714644 19.48486328 71.16186523 C16.49577796 66.80994966 14.91621533 61.89699472 13 57 C5.08 56.67 -2.84 56.34 -11 56 C-11.33 57.65 -11.66 59.3 -12 61 C-12.62654306 62.76476294 -13.29377216 64.51558751 -14 66.25 C-14.350625 67.12140625 -14.70125 67.9928125 -15.0625 68.890625 C-16 71 -16 71 -17 72 C-19.01964199 72.07244053 -21.04167124 72.08377188 -23.0625 72.0625 C-24.16722656 72.05347656 -25.27195312 72.04445313 -26.41015625 72.03515625 C-27.26480469 72.02355469 -28.11945313 72.01195313 -29 72 C-29.33 71.34 -29.66 70.68 -30 70 C-29.67 69.34 -29.34 68.68 -29 68 C-29.88751953 68.41572266 -29.88751953 68.41572266 -30.79296875 68.83984375 C-40.30478397 73.20007226 -48.40190276 74.36371491 -58.48046875 71.03515625 C-67.7616721 67.22194867 -73.71472511 60.96918 -78 52 C-78.33773437 52.5775 -78.67546875 53.155 -79.0234375 53.75 C-79.69246094 54.86375 -79.69246094 54.86375 -80.375 56 C-81.03628906 57.11375 -81.03628906 57.11375 -81.7109375 58.25 C-82.13632812 58.8275 -82.56171875 59.405 -83 60 C-83.66 60 -84.32 60 -85 60 C-85.34998047 60.89332031 -85.34998047 60.89332031 -85.70703125 61.8046875 C-88.63953551 66.78374307 -95.14555863 69.23023188 -100.3125 71.375 C-110.1837475 73.0480928 -120.57826599 73.01084411 -129.2890625 67.5703125 C-132.41131225 65.28823178 -135.42495092 62.89791456 -138 60 C-138 59.34 -138 58.68 -138 58 C-138.66 58 -139.32 58 -140 58 C-140.81674796 56.25197854 -141.62823451 54.50149811 -142.4375 52.75 C-142.88996094 51.77546875 -143.34242188 50.8009375 -143.80859375 49.796875 C-147.32209301 41.5487915 -147.15887754 32.32859625 -144.125 23.9375 C-142.8848488 20.88305352 -141.50375074 17.93299131 -140 15 C-139.34 15 -138.68 15 -138 15 C-137.79375 14.443125 -137.5875 13.88625 -137.375 13.3125 C-133.75056906 7.21686614 -126.78909663 3.57207302 -120.203125 1.41015625 C-109.47381288 -0.58732207 -99.84883155 0.79477281 -90.6015625 6.47265625 C-84.65670055 10.64985991 -81.29106148 15.58565664 -78 22 C-77.54109375 21.22914062 -77.0821875 20.45828125 -76.609375 19.6640625 C-75.99578125 18.66117188 -75.3821875 17.65828125 -74.75 16.625 C-74.14671875 15.62726562 -73.5434375 14.62953125 -72.921875 13.6015625 C-71.03641221 11.0492897 -69.92773776 10.07523113 -67 9 C-67 8.34 -67 7.68 -67 7 C-65.3970947 6.18501438 -63.79262722 5.37310073 -62.1875 4.5625 C-61.29417969 4.11003906 -60.40085937 3.65757813 -59.48046875 3.19140625 C-52.16063501 -0.3244194 -42.78422518 -0.17302739 -35.0625 2.1875 C-30.85248988 3.84312196 -27.47599177 6.11566641 -24 9 C-24 9.66 -24 10.32 -24 11 C-23.34 11 -22.68 11 -22 11 C-21.0625 13.0625 -21.0625 13.0625 -21 16 C-22.94615265 18.84704231 -25.1752968 21.02618075 -28 23 C-31.51366983 23.25097642 -32.60665766 22.33871146 -35.25 20.0625 C-38.98042851 17.26467862 -42.34932918 16.2340435 -47 16 C-52.45203091 16.92932345 -57.11588035 19.00164154 -61 23 C-64.48974008 28.85777799 -65.55571812 34.22023888 -65 41 C-63.1376029 48.06813357 -60.26074114 53.0634319 -54 57 C-49.03562717 58.65479094 -43.5732844 59.23321761 -38.7421875 56.91796875 C-37.39789208 56.03114269 -36.06987149 55.11901015 -34.76171875 54.1796875 C-32.58146032 52.71973618 -30.59848394 52.24360787 -28 52 C-27.34 52.99 -26.68 53.98 -26 55 C-25.34 55 -24.68 55 -24 55 C-23.69707031 54.18917969 -23.39414062 53.37835938 -23.08203125 52.54296875 C-22.66308594 51.43566406 -22.24414062 50.32835937 -21.8125 49.1875 C-21.40644531 48.10855469 -21.00039063 47.02960938 -20.58203125 45.91796875 C-18.99567523 41.87544056 -17.17790016 37.94562162 -15.36694336 33.99975586 C-12.47792826 27.65981506 -9.71725544 21.2619905 -6.9296875 14.87695312 C-4.72943507 9.85609931 -2.52978657 4.86432115 0 0 Z M1 28 C-1.63365987 32.9221313 -3.64475824 37.57903298 -5 43 C-1.04 43 2.92 43 7 43 C6.23239022 39.16195111 5.40495674 36.23779856 3.9375 32.6875 C3.57527344 31.80449219 3.21304688 30.92148437 2.83984375 30.01171875 C2.56269531 29.34785156 2.28554688 28.68398438 2 28 C1.67 28 1.34 28 1 28 Z " fill="#0D0706" transform="translate(343,29)"/>
<path d="M0 0 C5.61 0.33 11.22 0.66 17 1 C17.27177735 10.88398485 17.49162005 20.76546591 17.62174606 30.65235043 C17.68422129 35.24401732 17.76884829 39.83298349 17.90527344 44.4230957 C18.03626197 48.85836057 18.10752593 53.29103977 18.13852692 57.72809029 C18.16059758 59.41525552 18.20370508 61.10228845 18.26876068 62.78834343 C18.75744196 75.98591005 18.75744196 75.98591005 14.38928223 80.99197388 C11.473723 83.36964556 8.29261174 85.18605018 5 87 C4.25385437 87.56883408 3.50770874 88.13766815 2.73895264 88.72373962 C1 90 1 90 -1 90 C-1.03048569 81.00001596 -1.05093494 72.00002821 -1.0625 63 C-1.06335602 62.33851204 -1.06421204 61.67702408 -1.06509399 60.99549103 C-1.08838 40.64220386 -0.89664241 20.3345689 0 0 Z " fill="#F8F2E3" transform="translate(164,8)"/>
<path d="M0 0 C4.98960821 2.84831886 8.32952298 6.91938165 11.125 11.875 C12.72856126 18.44960116 12.05405065 24.32440957 8.75 30.22265625 C5.37793339 35.44714103 1.59855256 37.99429279 -4.25 40.1875 C-10.1647378 40.92684222 -15.11951103 40.65396549 -20.25 37.4375 C-25.90919908 32.89177417 -28.7179485 29.02233882 -29.56640625 21.7109375 C-29.96706937 14.97638722 -29.10037785 10.66778031 -24.97265625 5.28125 C-18.40592695 -1.74708612 -8.92877447 -4.02569022 0 0 Z " fill="#090908" transform="translate(131.25,43.5625)"/>
<path d="M0 0 C5.05514478 3.84513672 8.5783071 7.77413269 9.625 14.17578125 C9.90123246 20.4169084 8.98899373 25.47016846 5.1875 30.5 C-0.15822781 36.24749441 -3.84311831 38.24391086 -11.6875 38.75 C-16.88753694 38.632926 -20.8988116 37.33200658 -24.734375 33.66015625 C-30.44453221 27.32471324 -32.34235546 23.15939107 -32.1953125 14.546875 C-31.46141737 8.70566886 -28.49120385 5.17870385 -24.4375 1.125 C-16.97119836 -3.49699625 -7.6205274 -4.66614656 0 0 Z " fill="#F6EFE2" transform="translate(243.8125,47.5)"/>
<path d="M0 0 C1.23556641 0.01740234 1.23556641 0.01740234 2.49609375 0.03515625 C3.32238281 0.04417969 4.14867187 0.05320312 5 0.0625 C5.63808594 0.07410156 6.27617187 0.08570312 6.93359375 0.09765625 C7.71935531 3.59153503 8.07797364 6.8605327 8.13891602 10.4387207 C8.15886124 11.47942215 8.17880646 12.5201236 8.19935608 13.59236145 C8.21606857 14.70399155 8.23278107 15.81562164 8.25 16.9609375 C8.2707811 18.1080571 8.29156219 19.2551767 8.31297302 20.4370575 C8.37825994 24.09469723 8.43725661 27.75240763 8.49609375 31.41015625 C8.53929879 33.89258538 8.58291372 36.37500741 8.62695312 38.85742188 C8.73391997 44.9374257 8.83572489 51.01749954 8.93359375 57.09765625 C12.19898439 58.73035157 15.8376149 58.43822862 19.43359375 58.59765625 C27.66332348 58.96252111 27.66332348 58.96252111 29.93359375 60.09765625 C29.93359375 62.73765625 29.93359375 65.37765625 29.93359375 68.09765625 C27.02307175 69.55291725 24.45802964 69.22751512 21.2109375 69.23046875 C20.55025772 69.23142548 19.88957794 69.2323822 19.20887756 69.23336792 C17.81267196 69.23404841 16.41646319 69.23220325 15.02026367 69.22802734 C12.87606761 69.22266868 10.73208022 69.22798104 8.58789062 69.234375 C7.23307245 69.23371436 5.87825441 69.2324335 4.5234375 69.23046875 C3.28456787 69.22934082 2.04569824 69.22821289 0.76928711 69.22705078 C-2.06640625 69.09765625 -2.06640625 69.09765625 -3.06640625 68.09765625 C-3.16584597 66.01690216 -3.19440221 63.93273777 -3.19580078 61.84960938 C-3.1975531 61.19758041 -3.19930542 60.54555145 -3.20111084 59.87376404 C-3.20552829 57.70878472 -3.20259176 55.54388646 -3.19921875 53.37890625 C-3.19989182 51.88057438 -3.20086187 50.38224262 -3.20211792 48.88391113 C-3.20359475 45.73981692 -3.20144083 42.59575108 -3.19677734 39.45166016 C-3.19108005 35.41279086 -3.19435914 31.37398801 -3.20034981 27.33512115 C-3.20395583 24.24000545 -3.20281664 21.1449056 -3.20022202 18.04978943 C-3.19955286 16.5601755 -3.20038077 15.07056015 -3.20270157 13.58094788 C-3.20522878 11.5024939 -3.20138658 9.42414894 -3.19580078 7.34570312 C-3.19500519 6.16069214 -3.19420959 4.97568115 -3.19338989 3.75476074 C-3.02077147 0.14275858 -3.02077147 0.14275858 0 0 Z " fill="#060203" transform="translate(379.06640625,30.90234375)"/>
<path d="M0 0 C1.65 0 3.3 0 5 0 C4.67 0.99 4.34 1.98 4 3 C4.495 4.485 4.495 4.485 5 6 C2.43320792 14.02297851 -2.57352623 20.04109781 -9.94140625 24.05859375 C-17.86675425 27.40485179 -26.91795803 28.09976741 -35 25 C-40.74557503 21.96265019 -45.33765802 18.37906478 -49 13 C-49.8125 10.125 -49.8125 10.125 -50 8 C-46.36175478 8.54667933 -44.15828143 9.43878456 -41.1875 11.5625 C-34.70720301 15.26706978 -27.21885367 15.11127893 -20 14 C-14.01689212 12.27271419 -8.87489039 9.88396641 -4 6 C-4.495 4.515 -4.495 4.515 -5 3 C-3.35 2.67 -1.7 2.34 0 2 C0 1.34 0 0.68 0 0 Z " fill="#ECCEBE" transform="translate(66,92)"/>
<path d="M0 0 C8.3746988 2.06204819 8.3746988 2.06204819 11 6 C11.25760279 8.69452521 11.08900053 11.28548375 11 14 C6.66223833 16.16703183 2.80740064 16.18883544 -1.92578125 15.9765625 C-3.04716743 15.93902359 -3.04716743 15.93902359 -4.19120789 15.90072632 C-6.56546141 15.81893204 -8.93883179 15.72218881 -11.3125 15.625 C-12.92769897 15.56671879 -14.54293358 15.50941643 -16.15820312 15.453125 C-20.1059714 15.31341441 -24.05301631 15.16029968 -28 15 C-26.11920402 10.75485512 -23.22718344 8.57444988 -19.5625 5.875 C-18.97662109 5.43285156 -18.39074219 4.99070312 -17.78710938 4.53515625 C-11.00093704 -0.56410151 -8.24598662 -1.46146449 0 0 Z " fill="#120908" transform="translate(191,86)"/>
<path d="M0 0 C1.27423828 -0.00193359 1.27423828 -0.00193359 2.57421875 -0.00390625 C3.91419922 0.00189453 3.91419922 0.00189453 5.28125 0.0078125 C6.17457031 0.00394531 7.06789062 0.00007812 7.98828125 -0.00390625 C8.83777344 -0.00261719 9.68726563 -0.00132812 10.5625 0 C11.34689453 0.00112793 12.13128906 0.00225586 12.93945312 0.00341797 C14.78125 0.1328125 14.78125 0.1328125 15.78125 1.1328125 C15.87621708 3.53629536 15.90683862 5.91092232 15.89477539 8.31469727 C15.89492142 9.06586823 15.89506744 9.81703918 15.8952179 10.5909729 C15.89451863 13.08541709 15.88672564 15.57978753 15.87890625 18.07421875 C15.87704212 19.79914814 15.87561819 21.52407807 15.87461853 23.24900818 C15.87079297 27.79793753 15.86096238 32.34683517 15.84991455 36.89575195 C15.83970124 41.53401256 15.83512108 46.17227827 15.83007812 50.81054688 C15.81934014 59.91798272 15.80226327 69.02539498 15.78125 78.1328125 C15.12125 78.1328125 14.46125 78.1328125 13.78125 78.1328125 C13.78125 53.0528125 13.78125 27.9728125 13.78125 2.1328125 C12.13125 2.4628125 10.48125 2.7928125 8.78125 3.1328125 C6.17578125 3.046875 6.17578125 3.046875 3.59375 2.7578125 C2.30404297 2.62246094 2.30404297 2.62246094 0.98828125 2.484375 C-1.21875 2.1328125 -1.21875 2.1328125 -3.21875 1.1328125 C-3.21875 31.1628125 -3.21875 61.1928125 -3.21875 92.1328125 C-4.20875 92.6278125 -4.20875 92.6278125 -5.21875 93.1328125 C-5.24380615 92.32763184 -5.2688623 91.52245117 -5.29467773 90.69287109 C-5.39126158 87.63241147 -5.4903761 84.57204588 -5.59106445 81.51171875 C-5.65438439 79.56516435 -5.71492965 77.6185203 -5.77539062 75.671875 C-6.14728731 64.45775946 -6.66194305 53.25286216 -8.21875 42.1328125 C-7.55875 42.7928125 -6.89875 43.4528125 -6.21875 44.1328125 C-6.19369385 42.83545166 -6.1686377 41.53809082 -6.14282227 40.20141602 C-6.04893248 35.40622394 -5.94866751 30.611183 -5.84643555 25.81616211 C-5.80301666 23.73742193 -5.76134688 21.65864447 -5.72143555 19.57983398 C-5.66390079 16.59868105 -5.60015881 13.61771701 -5.53515625 10.63671875 C-5.51844376 9.70130753 -5.50173126 8.7658963 -5.48451233 7.80213928 C-5.46456711 6.94132248 -5.44462189 6.08050568 -5.42407227 5.19360352 C-5.40852798 4.43193375 -5.3929837 3.67026398 -5.37696838 2.88551331 C-5.06229685 -0.60033349 -3.01432361 0.00433448 0 0 Z " fill="#ECCFBA" transform="translate(167.21875,6.8671875)"/>
<path d="M0 0 C0.66 0.99 1.32 1.98 2 3 C1.34 3 0.68 3 0 3 C0 3.66 0 4.32 0 5 C0.99 5.33 1.98 5.66 3 6 C2.34 6 1.68 6 1 6 C1 6.66 1 7.32 1 8 C-6.06458166 12.2010255 -16.16076142 11.53985044 -24 10 C-27 8.9375 -27 8.9375 -29 8 C-27.625 5.5625 -27.625 5.5625 -25 3 C-22.67397862 2.42658718 -20.47429839 2.30163215 -18.08203125 2.1796875 C-14.31252879 1.9599193 -10.61280645 1.4583455 -6.875 0.9375 C-5.57304688 0.76089844 -4.27109375 0.58429688 -2.9296875 0.40234375 C-1.96289062 0.26957031 -0.99609375 0.13679688 0 0 Z " fill="#FAF0E3" transform="translate(57,105)"/>
<path d="M0 0 C1.18613892 0.00785522 1.18613892 0.00785522 2.39624023 0.01586914 C3.67724609 0.02070312 3.67724609 0.02070312 4.98413086 0.02563477 C5.88196289 0.03401367 6.77979492 0.04239258 7.70483398 0.05102539 C8.6065332 0.05553711 9.50823242 0.06004883 10.43725586 0.06469727 C12.67234712 0.07652315 14.90730835 0.09300319 17.14233398 0.11352539 C17.14233398 0.44352539 17.14233398 0.77352539 17.14233398 1.11352539 C11.20233398 1.11352539 5.26233398 1.11352539 -0.85766602 1.11352539 C-0.85766602 31.14352539 -0.85766602 61.17352539 -0.85766602 92.11352539 C-1.84766602 92.60852539 -1.84766602 92.60852539 -2.85766602 93.11352539 C-2.88272217 92.30834473 -2.90777832 91.50316406 -2.93359375 90.67358398 C-3.0301776 87.61312436 -3.12929211 84.55275877 -3.22998047 81.49243164 C-3.2933004 79.54587724 -3.35384566 77.59923319 -3.41430664 75.65258789 C-3.78620333 64.43847235 -4.30085906 53.23357505 -5.85766602 42.11352539 C-5.19766602 42.77352539 -4.53766602 43.43352539 -3.85766602 44.11352539 C-3.83260986 42.81616455 -3.80755371 41.51880371 -3.78173828 40.18212891 C-3.6878485 35.38693683 -3.58758352 30.59189589 -3.48535156 25.796875 C-3.44193268 23.71813482 -3.4002629 21.63935736 -3.36035156 19.56054688 C-3.3028168 16.57939394 -3.23907483 13.5984299 -3.17407227 10.61743164 C-3.15735977 9.68202042 -3.14064728 8.74660919 -3.12342834 7.78285217 C-3.10348312 6.92203537 -3.0835379 6.06121857 -3.06298828 5.17431641 C-3.047444 4.41264664 -3.03189972 3.65097687 -3.0158844 2.8662262 C-2.79436705 0.41231649 -2.45889671 0.15026771 0 0 Z " fill="#D5A895" transform="translate(164.857666015625,6.886474609375)"/>
<path d="M0 0 C1.50046875 0.00386719 1.50046875 0.00386719 3.03125 0.0078125 C4.0315625 0.00523438 5.031875 0.00265625 6.0625 0 C8.53125 0.1328125 8.53125 0.1328125 9.53125 1.1328125 C9.62501053 2.94336275 9.6486911 4.75758451 9.64477539 6.57055664 C9.64469986 7.73168472 9.64462433 8.89281281 9.64454651 10.08912659 C9.63938522 11.3526445 9.63422394 12.61616241 9.62890625 13.91796875 C9.6274913 15.20392441 9.62607635 16.48988007 9.62461853 17.81480408 C9.62079418 21.23924693 9.61096462 24.66364759 9.59991455 28.08807373 C9.58969864 31.58019439 9.58512053 35.07232184 9.58007812 38.56445312 C9.56934227 45.42059028 9.55226684 52.27669937 9.53125 59.1328125 C9.20125 59.1328125 8.87125 59.1328125 8.53125 59.1328125 C8.20125 40.3228125 7.87125 21.5128125 7.53125 2.1328125 C3.07625 2.6278125 3.07625 2.6278125 -1.46875 3.1328125 C-1.79875 24.5828125 -2.12875 46.0328125 -2.46875 68.1328125 C-3.45875 67.8028125 -4.44875 67.4728125 -5.46875 67.1328125 C-5.30765747 66.5992363 -5.14656494 66.0656601 -4.98059082 65.51591492 C-4.36174024 62.63458103 -4.31319736 59.95138537 -4.27929688 57.00317383 C-4.26257935 55.76541702 -4.24586182 54.52766022 -4.2286377 53.25239563 C-4.22195572 52.59434748 -4.21527374 51.93629932 -4.20838928 51.25831032 C-4.18729849 49.19513093 -4.16028508 47.132104 -4.13171387 45.0690155 C-4.06201473 39.94914373 -4.00236096 34.82916426 -3.94268799 29.70916748 C-3.89183026 25.37511684 -3.83705424 21.04115158 -3.77687073 16.70722008 C-3.75023483 14.67030214 -3.72946417 12.6333764 -3.7088623 10.59638977 C-3.69214478 9.36808945 -3.67542725 8.13978912 -3.65820312 6.87426758 C-3.64567505 5.78712967 -3.63314697 4.69999176 -3.62023926 3.57991028 C-3.41545897 0.27197022 -3.31241855 0.17819973 0 0 Z " fill="#441D19" transform="translate(378.46875,28.8671875)"/>
<path d="M0 0 C6.93 0 13.86 0 21 0 C23.26562116 5.6640529 23.14440994 7.27795028 22 13 C19.70797012 14.14601494 18.4054331 14.13237239 15.85742188 14.14526367 C14.57599304 14.15483345 14.57599304 14.15483345 13.26867676 14.16459656 C11.88271301 14.16626579 11.88271301 14.16626579 10.46875 14.16796875 C9.52189331 14.17129715 8.57503662 14.17462555 7.5994873 14.17805481 C5.59546394 14.18312246 3.59143211 14.18546319 1.58740234 14.18530273 C-1.48744503 14.18749106 -4.56193481 14.20565354 -7.63671875 14.22460938 C-9.58072793 14.22754289 -11.52473883 14.22952797 -13.46875 14.23046875 C-14.85471375 14.24124702 -14.85471375 14.24124702 -16.26867676 14.25224304 C-17.12296265 14.24916641 -17.97724854 14.24608978 -18.85742188 14.24291992 C-19.61083862 14.24434494 -20.36425537 14.24576996 -21.14050293 14.24723816 C-23 14 -23 14 -25 12 C-19.54684372 11.07892334 -14.3092758 10.86744368 -8.78515625 10.90234375 C-7.50154457 10.90446617 -7.50154457 10.90446617 -6.19200134 10.90663147 C-3.48213069 10.9121901 -0.77234532 10.92473475 1.9375 10.9375 C3.78450401 10.94252035 5.63150932 10.94708232 7.47851562 10.95117188 C11.98570951 10.96214595 16.49284034 10.9793817 21 11 C21 8.36 21 5.72 21 3 C20.43490723 2.98018066 19.86981445 2.96036133 19.28759766 2.93994141 C16.73292003 2.84481764 14.17907459 2.73508942 11.625 2.625 C10.73554688 2.5940625 9.84609375 2.563125 8.9296875 2.53125 C8.07890625 2.49257812 7.228125 2.45390625 6.3515625 2.4140625 C5.56604004 2.3826416 4.78051758 2.3512207 3.97119141 2.31884766 C2 2 2 2 0 0 Z " fill="#2E0F0C" transform="translate(388,88)"/>
<path d="M0 0 C0 0.33 0 0.66 0 1 C-0.72703125 1.01417969 -1.4540625 1.02835938 -2.203125 1.04296875 C-10.46785906 1.43501383 -19.89730573 2.89730573 -26 9 C-27.98821313 9.39764263 -29.98944339 9.73775349 -32 10 C-32.061875 10.556875 -32.12375 11.11375 -32.1875 11.6875 C-33.35165517 15.00086472 -35.39458444 16.70475296 -38 19 C-38.99 19.33 -39.98 19.66 -41 20 C-37.98131378 11.33441818 -30.82181289 6.23121415 -22.86328125 2.19140625 C-15.16292213 -1.01269952 -8.14570687 -1.33536178 0 0 Z " fill="#E4C0AF" transform="translate(52,24)"/>
<path d="M0 0 C6.04433574 1.35997554 9.63494136 4.85651794 14 9 C13.53077871 13.53315481 12.07310522 15.39389426 8.6875 18.375 C7.51767578 19.43847656 7.51767578 19.43847656 6.32421875 20.5234375 C4 22 4 22 1.84765625 21.85546875 C-0.641521 20.70297442 -2.17620539 19.01920118 -4 17 C-0.7 17.33 2.6 17.66 6 18 C6 17.01 6 16.02 6 15 C6.99 15 7.98 15 9 15 C8.67 14.01 8.34 13.02 8 12 C9.32 12.33 10.64 12.66 12 13 C9.28395285 10.12579877 9.28395285 10.12579877 6 8 C6 7.34 6 6.68 6 6 C3.69 5.34 1.38 4.68 -1 4 C-0.34 3.67 0.32 3.34 1 3 C0.67 2.01 0.34 1.02 0 0 Z " fill="#D7B19D" transform="translate(60,27)"/>
<path d="M0 0 C0.99 0.33 1.98 0.66 3 1 C2.62459458 3.48507814 2.3280083 4.70389276 0.43359375 6.4140625 C-8.13360399 11.61138403 -15.06390424 12.78561721 -25 11 C-27.8705179 10.2112954 -30.27977736 9.25936233 -33 8 C-33.33 7.34 -33.66 6.68 -34 6 C-33.01 6.144375 -32.02 6.28875 -31 6.4375 C-29.6667595 6.62565894 -28.33342025 6.81311913 -27 7 C-26.34 7.09539062 -25.68 7.19078125 -25 7.2890625 C-18.88492606 8.12510776 -13.05887628 8.46881849 -7 7 C-7 6.67 -7 6.34 -7 6 C-5.35 6 -3.7 6 -2 6 C-1.34 4.02 -0.68 2.04 0 0 Z " fill="#E5BFAC" transform="translate(60,107)"/>
<path d="M0 0 C2.9364247 1.31632831 4.78257895 2.69729352 7 5 C8.05997848 5.83653829 9.12270093 6.66960634 10.1875 7.5 C11.115625 8.325 12.04375 9.15 13 10 C13 10.99 13 11.98 13 13 C13.763125 12.938125 14.52625 12.87625 15.3125 12.8125 C18 13 18 13 19.41723633 14.47973633 C21.37663818 16.36176553 22.33608923 16.41113117 25.01171875 16.51171875 C25.76904297 16.54716797 26.52636719 16.58261719 27.30664062 16.61914062 C28.09232422 16.64169922 28.87800781 16.66425781 29.6875 16.6875 C30.48478516 16.72166016 31.28207031 16.75582031 32.10351562 16.79101562 C34.06851904 16.87338104 36.03423696 16.93837067 38 17 C38 17.33 38 17.66 38 18 C28.98002336 20.25499416 20.77563061 18.9854709 12.57421875 14.74609375 C7.20978983 11.43727793 3.15512882 7.49363606 0 2 C0 1.34 0 0.68 0 0 Z " fill="#371A11" transform="translate(267,83)"/>
<path d="M0 0 C2.60924787 1.00861682 3.79748847 1.66498092 5.265625 4.09375 C5.75289063 5.28484375 5.75289063 5.28484375 6.25 6.5 C6.58515625 7.2940625 6.9203125 8.088125 7.265625 8.90625 C8 11 8 11 8 13 C7.01 12.67 6.02 12.34 5 12 C4.938125 11.21625 4.87625 10.4325 4.8125 9.625 C4.544375 8.75875 4.27625 7.8925 4 7 C1.52363988 5.62533375 1.52363988 5.62533375 -1 5 C-0.938125 5.928125 -0.87625 6.85625 -0.8125 7.8125 C-1.03195242 11.54319107 -1.50579277 11.55518301 -4 14 C-4.84575531 15.89992043 -4.84575531 15.89992043 -5.4375 17.9375 C-6.65857523 21.46432899 -8.07448618 23.57888511 -11 26 C-9.30694349 20.583992 -7.14636468 15.40737522 -4.9375 10.1875 C-4.57333984 9.31673828 -4.20917969 8.44597656 -3.83398438 7.54882812 C-3.48529297 6.72189453 -3.13660156 5.89496094 -2.77734375 5.04296875 C-2.46015381 4.29039795 -2.14296387 3.53782715 -1.81616211 2.76245117 C-1 1 -1 1 0 0 Z " fill="#351816" transform="translate(343,29)"/>
<path d="M0 0 C0.66 0 1.32 0 2 0 C1.3739007 3.62615842 0.38690533 6.84392368 -1 10.25 C-1.5259375 11.55710937 -1.5259375 11.55710937 -2.0625 12.890625 C-3 15 -3 15 -4 16 C-6.01964199 16.07244053 -8.04167124 16.08377188 -10.0625 16.0625 C-11.71958984 16.04896484 -11.71958984 16.04896484 -13.41015625 16.03515625 C-14.26480469 16.02355469 -15.11945313 16.01195313 -16 16 C-16.33 15.34 -16.66 14.68 -17 14 C-16.67 13.34 -16.34 12.68 -16 12 C-16.99 12.33 -17.98 12.66 -19 13 C-19.33 12.01 -19.66 11.02 -20 10 C-16.86650268 8.95550089 -16.01031744 9.06576355 -13 10 C-12.67 11.32 -12.34 12.64 -12 14 C-9.36 14 -6.72 14 -4 14 C-3.96261719 13.40832031 -3.92523438 12.81664063 -3.88671875 12.20703125 C-3.49210055 7.46387522 -3.09220202 3.8343305 0 0 Z " fill="#3A1613" transform="translate(330,85)"/>
<path d="M0 0 C0.74306396 -0.00128906 1.48612793 -0.00257812 2.25170898 -0.00390625 C8.64352702 0.11782949 14.0398715 1.58219485 19.8125 4.375 C19.4825 5.035 19.1525 5.695 18.8125 6.375 C17.4925 6.375 16.1725 6.375 14.8125 6.375 C14.8125 5.715 14.8125 5.055 14.8125 4.375 C11.85741553 3.54128641 9.11140387 3.19610466 6.046875 3.05859375 C5.15742187 3.01669922 4.26796875 2.97480469 3.3515625 2.93164062 C2.43117188 2.89232422 1.51078125 2.85300781 0.5625 2.8125 C-0.37335938 2.76931641 -1.30921875 2.72613281 -2.2734375 2.68164062 C-4.57798641 2.5758195 -6.88263839 2.47373443 -9.1875 2.375 C-9.1875 3.035 -9.1875 3.695 -9.1875 4.375 C-13.6425 4.87 -13.6425 4.87 -18.1875 5.375 C-12.73669524 0.76278059 -6.96352502 -0.01252573 0 0 Z " fill="#E1B59F" transform="translate(121.1875,22.625)"/>
<path d="M0 0 C0.33 0 0.66 0 1 0 C1.09765625 6.15234375 1.09765625 6.15234375 1 8 C0 9 0 9 -3.41821289 9.11352539 C-4.93636988 9.11336628 -6.45453229 9.10767226 -7.97265625 9.09765625 C-8.77029892 9.0962413 -9.56794159 9.09482635 -10.38975525 9.09336853 C-12.94737435 9.08775316 -15.50490718 9.07519812 -18.0625 9.0625 C-19.79231645 9.05748698 -21.52213426 9.05292373 -23.25195312 9.04882812 C-27.50133553 9.03777875 -31.75065312 9.02050386 -36 9 C-36 13.62 -36 18.24 -36 23 C-38 21 -38 21 -38.23046875 18.46875 C-38.21628906 17.4890625 -38.20210937 16.509375 -38.1875 15.5 C-38.18105469 14.5203125 -38.17460938 13.540625 -38.16796875 12.53125 C-38 10 -38 10 -37 8 C-19.675 7.505 -19.675 7.505 -2 7 C-1.34 4.69 -0.68 2.38 0 0 Z " fill="#EA9D8E" transform="translate(84,49)"/>
<path d="M0 0 C1.30546772 3.91640317 0.41006422 4.96986851 -1.375 8.625 C-4.58631437 14.80002741 -9.28912229 22.47017889 -16.2734375 24.73828125 C-16.84320313 24.82464844 -17.41296875 24.91101563 -18 25 C-18 24.01 -18 23.02 -18 22 C-17.01 22 -16.02 22 -15 22 C-14.67 20.68 -14.34 19.36 -14 18 C-13.01 18.33 -12.02 18.66 -11 19 C-11.33 18.01 -11.66 17.02 -12 16 C-10.71034824 14.62437146 -9.37310707 13.29233607 -8 12 C-7.34 12 -6.68 12 -6 12 C-6 11.34 -6 10.68 -6 10 C-5.34 10 -4.68 10 -4 10 C-4 8.68 -4 7.36 -4 6 C-3.34 6 -2.68 6 -2 6 C-1.34 4.02 -0.68 2.04 0 0 Z " fill="#E1BDAC" transform="translate(160,72)"/>
<path d="M0 0 C1.98 0 3.96 0 6 0 C2.24884395 4.34344384 -2.4602685 5.38447428 -8 6 C-15.82449794 6.3960252 -23.27427377 6.48381749 -30 2 C-29.04996094 2.15339844 -28.09992188 2.30679688 -27.12109375 2.46484375 C-22.45038433 3.13208795 -17.77201861 3.34403564 -13.0625 3.5625 C-12.18787109 3.60568359 -11.31324219 3.64886719 -10.41210938 3.69335938 C-8.27488005 3.79846901 -6.13745762 3.89963985 -4 4 C-4 3.34 -4 2.68 -4 2 C-2.68 2 -1.36 2 0 2 C0 1.34 0 0.68 0 0 Z " fill="#D6AD9A" transform="translate(136,97)"/>
<path d="M0 0 C1.22551323 0.03541649 1.22551323 0.03541649 2.4757843 0.07154846 C5.08429718 0.14809843 7.69250669 0.23215997 10.30078125 0.31640625 C12.06964663 0.36963562 13.8385268 0.42237597 15.60742188 0.47460938 C19.94290031 0.60370184 24.27812168 0.73953136 28.61328125 0.87890625 C28.61328125 1.20890625 28.61328125 1.53890625 28.61328125 1.87890625 C20.24831919 2.80715961 11.96331562 3.0618367 3.55078125 3.06640625 C2.32939453 3.07865234 1.10800781 3.09089844 -0.15039062 3.10351562 C-1.89352539 3.10641602 -1.89352539 3.10641602 -3.671875 3.109375 C-5.24787476 3.11553833 -5.24787476 3.11553833 -6.85571289 3.12182617 C-9.38671875 2.87890625 -9.38671875 2.87890625 -11.38671875 0.87890625 C-7.53962852 -0.40345716 -3.99659204 -0.13610716 0 0 Z " fill="#1E0303" transform="translate(374.38671875,99.12109375)"/>
<path d="M0 0 C1.67542976 0.28604898 3.34385343 0.61781233 5 1 C5.33 1.99 5.66 2.98 6 4 C4.88625 4.103125 3.7725 4.20625 2.625 4.3125 C1.42875 4.539375 0.2325 4.76625 -1 5 C-1.99 6.485 -1.99 6.485 -3 8 C-6.78653562 9.19609589 -10.261868 9.01422962 -14.1875 8.6875 C-15.23292969 8.60886719 -16.27835937 8.53023437 -17.35546875 8.44921875 C-20 8 -20 8 -22 6 C-21.154375 6.05800781 -20.30875 6.11601563 -19.4375 6.17578125 C-11.82400544 6.47859069 -6.8794087 6.03713386 -1 1 C-0.67 0.67 -0.34 0.34 0 0 Z " fill="#3D1410" transform="translate(311,81)"/>
<path d="M0 0 C0 0.66 0 1.32 0 2 C-0.598125 2.226875 -1.19625 2.45375 -1.8125 2.6875 C-4.20956202 3.88767957 -4.20956202 3.88767957 -5.5 6.5625 C-7 9 -7 9 -9.1875 9.8125 C-9.785625 9.874375 -10.38375 9.93625 -11 10 C-11.0825 10.94875 -11.165 11.8975 -11.25 12.875 C-12 16 -12 16 -14.0625 17.375 C-14.701875 17.58125 -15.34125 17.7875 -16 18 C-16 18.99 -16 19.98 -16 21 C-16.66 21 -17.32 21 -18 21 C-16.2931613 14.17264521 -8.10350161 0 0 0 Z " fill="#E1B7A5" transform="translate(103,28)"/>
<path d="M0 0 C1.4301492 3.80456358 0.53792878 6.29670823 -0.75 10.0625 C-1.09546875 11.10535156 -1.4409375 12.14820312 -1.796875 13.22265625 C-2.94502554 15.87309466 -3.90227459 17.10678821 -6 19 C-6.71447643 21.10332891 -6.71447643 21.10332891 -7 23 C-7.66 23 -8.32 23 -9 23 C-2.35 2.35 -2.35 2.35 0 0 Z " fill="#431A16" transform="translate(331,56)"/>
<path d="M0 0 C0.66 0 1.32 0 2 0 C2 1.32 2 2.64 2 4 C2.99 3.67 3.98 3.34 5 3 C7.53309233 7.64203897 9.46515599 11.65155992 10 17 C5.48771065 13.00340086 2.43481021 8.53271767 0 3 C0 2.01 0 1.02 0 0 Z " fill="#E4BBAA" transform="translate(84,74)"/>
<path d="M0 0 C0.66 0 1.32 0 2 0 C2 0.66 2 1.32 2 2 C2.66 2 3.32 2 4 2 C4.9375 4.0625 4.9375 4.0625 5 7 C3.05686716 9.8426246 0.8426246 12.05686716 -2 14 C-4.9375 13.9375 -4.9375 13.9375 -7 13 C-6.01 12.67 -5.02 12.34 -4 12 C-4 11.34 -4 10.68 -4 10 C-1.5 8.375 -1.5 8.375 1 7 C0.67 4.69 0.34 2.38 0 0 Z " fill="#331B16" transform="translate(317,38)"/>
<path d="M0 0 C1.32 0 2.64 0 4 0 C3.28710435 3.13528595 2.2907467 6.06680209 1.125 9.0625 C0.79757813 9.91972656 0.47015625 10.77695313 0.1328125 11.66015625 C-0.98527344 13.96958203 -2.08073582 15.32749836 -4 17 C-2.91103333 11.24237834 -1.70663707 5.60752181 0 0 Z " fill="#E7C0AC" transform="translate(80,69)"/>
<path d="M0 0 C4.48421069 1.25140763 7.68386534 2.68386534 11 6 C11.8125 8.75 11.8125 8.75 12 11 C10.02 10.01 8.04 9.02 6 8 C6 7.34 6 6.68 6 6 C3.69 5.34 1.38 4.68 -1 4 C-0.34 3.67 0.32 3.34 1 3 C0.67 2.01 0.34 1.02 0 0 Z " fill="#E9CEBC" transform="translate(60,27)"/>
<path d="M0 0 C1.65 0 3.3 0 5 0 C4.67 0.99 4.34 1.98 4 3 C4.33 3.99 4.66 4.98 5 6 C4.07796291 8.36522558 3.08301035 10.70401807 2 13 C1.67 13 1.34 13 1 13 C1 11.02 1 9.04 1 7 C1.66 7 2.32 7 3 7 C3 6.01 3 5.02 3 4 C-0.12197478 5.3089572 -0.12197478 5.3089572 -2 8 C-2.66 7.67 -3.32 7.34 -4 7 C-4.625 4.9375 -4.625 4.9375 -5 3 C-3.35 2.67 -1.7 2.34 0 2 C0 1.34 0 0.68 0 0 Z " fill="#DDA999" transform="translate(66,92)"/>
<path d="M0 0 C-2 2 -2 2 -5.375 3.75 C-9.21361868 5.86564787 -10.85400719 8.22305266 -13 12 C-14.13764556 8.58706332 -14.22600107 7.35106958 -13 4 C-8.70151806 0.2132421 -5.65125964 -0.45210077 0 0 Z " fill="#E7BFAD" transform="translate(40,42)"/>
<path d="M0 0 C2.50299808 5.00599616 2.05223099 6.65115915 1 12 C-2.18824568 13.59412284 -5.62896662 13.10174735 -9.125 13.0625 C-9.87910156 13.05798828 -10.63320313 13.05347656 -11.41015625 13.04882812 C-13.27347127 13.03703499 -15.13674555 13.01909942 -17 13 C-17 12.67 -17 12.34 -17 12 C-8.585 11.01 -8.585 11.01 0 10 C0 6.7 0 3.4 0 0 Z " fill="#452815" transform="translate(409,89)"/>
<path d="M0 0 C1.38294718 0.01329757 2.76582404 0.03715018 4.1484375 0.0703125 C4.85484375 0.07933594 5.56125 0.08835937 6.2890625 0.09765625 C8.03399848 0.12123647 9.77876045 0.15710789 11.5234375 0.1953125 C11.5234375 0.5253125 11.5234375 0.8553125 11.5234375 1.1953125 C10.84796875 1.22109375 10.1725 1.246875 9.4765625 1.2734375 C3.80207957 1.50856362 3.80207957 1.50856362 -0.9765625 4.2578125 C-1.4715625 4.8971875 -1.9665625 5.5365625 -2.4765625 6.1953125 C-3.1365625 6.1953125 -3.7965625 6.1953125 -4.4765625 6.1953125 C-5.1015625 4.3203125 -5.1015625 4.3203125 -5.4765625 2.1953125 C-3.4765625 0.1953125 -3.4765625 0.1953125 0 0 Z " fill="#E9D3C0" transform="translate(30.4765625,106.8046875)"/>
<path d="M0 0 C0.66 0.33 1.32 0.66 2 1 C0.71034824 2.37562854 -0.62689293 3.70766393 -2 5 C-2.66 5 -3.32 5 -4 5 C-4 5.99 -4 6.98 -4 8 C-5.53125 9.38671875 -5.53125 9.38671875 -7.5 10.6875 C-8.47453125 11.34298828 -8.47453125 11.34298828 -9.46875 12.01171875 C-9.9740625 12.33785156 -10.479375 12.66398437 -11 13 C-11 9.06830895 -9.60580385 7.83572772 -7 5 C-6.34 5 -5.68 5 -5 5 C-5 4.34 -5 3.68 -5 3 C-2.625 1.3125 -2.625 1.3125 0 0 Z " fill="#3F1811" transform="translate(281,33)"/>
<path d="M0 0 C0.66 0.66 1.32 1.32 2 2 C-0.62450086 2.22119939 -3.24870486 2.42746669 -5.875 2.625 C-6.62136719 2.68945312 -7.36773437 2.75390625 -8.13671875 2.8203125 C-10.0870047 2.96087365 -12.04469467 2.98759849 -14 3 C-14.66 2.34 -15.32 1.68 -16 1 C-11.3666994 -1.3166503 -4.88311489 -1.62770496 0 0 Z " fill="#F4DBCB" transform="translate(49,40)"/>
<path d="M0 0 C0.99 0 1.98 0 3 0 C3 1.32 3 2.64 3 4 C3.61875 4.061875 4.2375 4.12375 4.875 4.1875 C7 5 7 5 8.25 7.5625 C8.4975 8.366875 8.745 9.17125 9 10 C6 10 6 10 4.39453125 8.57421875 C3.61142578 7.64029297 3.61142578 7.64029297 2.8125 6.6875 C2.01779297 5.76517578 2.01779297 5.76517578 1.20703125 4.82421875 C0 3 0 3 0 0 Z " fill="#E3CAB7" transform="translate(11,81)"/>
<path d="M0 0 C2 2 2 2 3.25 4.3125 C5.43277414 7.66461743 7.8503866 9.55030069 11 12 C8.7052686 12.81954693 7.32638735 13.07912421 4.9375 12.5 C1.97157561 10.20380047 1.20237254 7.48688036 0 4 C0 2.68 0 1.36 0 0 Z " fill="#402019" transform="translate(278,74)"/>
<path d="M0 0 C0 0.99 0 1.98 0 3 C-0.66 3 -1.32 3 -2 3 C-2 3.99 -2 4.98 -2 6 C-2.804375 6.12375 -3.60875 6.2475 -4.4375 6.375 C-5.7059375 6.684375 -5.7059375 6.684375 -7 7 C-7.33 7.66 -7.66 8.32 -8 9 C-8.99 8.34 -9.98 7.68 -11 7 C-9.68 6.67 -8.36 6.34 -7 6 C-7 5.34 -7 4.68 -7 4 C-6.34 4 -5.68 4 -5 4 C-5 3.34 -5 2.68 -5 2 C-2 0 -2 0 0 0 Z " fill="#F7ECD6" transform="translate(69,96)"/>
<path d="M0 0 C2.00720923 0.28674418 4.0085944 0.61866701 6 1 C6.33 2.98 6.66 4.96 7 7 C5.35 6.67 3.7 6.34 2 6 C2.33 5.01 2.66 4.02 3 3 C2.01 3.33 1.02 3.66 0 4 C-0.33 3.01 -0.66 2.02 -1 1 C-0.67 0.67 -0.34 0.34 0 0 Z " fill="#2D0E0C" transform="translate(311,94)"/>
<path d="M0 0 C0.66 0 1.32 0 2 0 C3.80230168 3.82989106 4.19622241 6.78121808 4 11 C2.49440461 9.03617993 1.10868317 7.21736634 0 5 C-0.66 5.66 -1.32 6.32 -2 7 C-1.125 1.125 -1.125 1.125 0 0 Z " fill="#351312" transform="translate(344,53)"/>
<path d="M0 0 C0.99 0.33 1.98 0.66 3 1 C3 2.98 3 4.96 3 7 C2.34 6.34 1.68 5.68 1 5 C-0.32 6.98 -1.64 8.96 -3 11 C-3.33 9.68 -3.66 8.36 -4 7 C-3.34 7 -2.68 7 -2 7 C-1.855625 6.21625 -1.71125 5.4325 -1.5625 4.625 C-1 2 -1 2 0 0 Z " fill="#3E1913" transform="translate(264,76)"/>
<path d="M0 0 C2.90065771 1.45032886 3.35265712 3.4605293 4.6875 6.375 C5.14511719 7.35210937 5.60273438 8.32921875 6.07421875 9.3359375 C7 12 7 12 6 15 C2 8.25 2 8.25 2 6 C1.34 6 0.68 6 0 6 C0 4.02 0 2.04 0 0 Z " fill="#561816" transform="translate(351,43)"/>
<path d="M0 0 C9.66666667 3.22222222 9.66666667 3.22222222 12 6 C12 6.66 12 7.32 12 8 C6.80421104 6.63919813 3.86388964 4.58789752 0 1 C0 0.67 0 0.34 0 0 Z " fill="#E0B2A5" transform="translate(94,91)"/>
<path d="M0 0 C0.99386719 0.10183594 1.98773438 0.20367187 3.01171875 0.30859375 C3.77097656 0.39238281 4.53023438 0.47617188 5.3125 0.5625 C2.17838698 2.65190868 1.33799528 2.83614412 -2.25 2.8125 C-3.42755859 2.82023437 -3.42755859 2.82023437 -4.62890625 2.828125 C-6.6875 2.5625 -6.6875 2.5625 -8.6875 0.5625 C-5.3763987 -0.54120043 -3.44001051 -0.36423641 0 0 Z " fill="#3A261C" transform="translate(371.6875,99.4375)"/>
<path d="M0 0 C1.46726798 3.81489674 0.43336419 6.29011622 -1 10 C-1.99 9.67 -2.98 9.34 -4 9 C-3.6875 5.625 -3.6875 5.625 -3 2 C-2.01 1.34 -1.02 0.68 0 0 Z " fill="#F3D8C6" transform="translate(76,79)"/>
<path d="M0 0 C1.125 1.6875 1.125 1.6875 2 4 C1.1144582 7.0993963 0.28724116 8.71275884 -2 11 C-3.14947895 7.44706507 -3.0868937 6.20023331 -1.5625 2.6875 C-1.046875 1.800625 -0.53125 0.91375 0 0 Z " fill="#E8C2AD" transform="translate(10,44)"/>
<path d="M0 0 C1.98 0 3.96 0 6 0 C3.63448058 2.73902249 1.45142779 3.93170092 -2 5 C-4.8125 5.125 -4.8125 5.125 -7 5 C-6.01 4.67 -5.02 4.34 -4 4 C-4 3.34 -4 2.68 -4 2 C-2.68 2 -1.36 2 0 2 C0 1.34 0 0.68 0 0 Z " fill="#DEB8A6" transform="translate(136,97)"/>
<path d="M0 0 C0.99 0.495 0.99 0.495 2 1 C2.33 1.99 2.66 2.98 3 4 C3.495 4.45375 3.99 4.9075 4.5 5.375 C6.43309736 7.46918881 6.62452796 9.22150692 7 12 C6.34 11.67 5.68 11.34 5 11 C5 10.34 5 9.68 5 9 C4.34 9 3.68 9 3 9 C0.56839395 5.63316085 0 4.26649636 0 0 Z " fill="#300B0A" transform="translate(354,53)"/>
<path d="M0 0 C2.475 0.495 2.475 0.495 5 1 C5 3.64 5 6.28 5 9 C1.7457985 6.16569547 0.4793247 4.31392226 0 0 Z " fill="#E7AD9C" transform="translate(16,100)"/>
<path d="M0 0 C1.65 0 3.3 0 5 0 C5.33 0.99 5.66 1.98 6 3 C6.66 3 7.32 3 8 3 C8.33 4.32 8.66 5.64 9 7 C4.58110387 5.64978174 2.65654657 3.73884332 0 0 Z " fill="#381D1A" transform="translate(207,90)"/>
<path d="M0 0 C3.3 0.33 6.6 0.66 10 1 C9.34 2.32 8.68 3.64 8 5 C4.20411134 4.45773019 2.52788007 2.79872437 0 0 Z " fill="#E4B3A0" transform="translate(56,44)"/>
<path d="M0 0 C0.66 0 1.32 0 2 0 C2 0.66 2 1.32 2 2 C2.66 2 3.32 2 4 2 C4.33 3.65 4.66 5.3 5 7 C4.01 7.66 3.02 8.32 2 9 C1.34 6.03 0.68 3.06 0 0 Z " fill="#3D0D0B" transform="translate(317,38)"/>
<path d="M0 0 C0 0.66 0 1.32 0 2 C-0.598125 2.226875 -1.19625 2.45375 -1.8125 2.6875 C-4.56085774 4.33651464 -5.39211876 6.27359268 -7 9 C-7.99 9.33 -8.98 9.66 -10 10 C-9.43867066 6.4628562 -8.30442253 5.00738321 -5.5625 2.75 C-4.94503906 2.22921875 -4.32757813 1.7084375 -3.69140625 1.171875 C-2 0 -2 0 0 0 Z " fill="#E8A798" transform="translate(103,28)"/>
<path d="M0 0 C1 3 1 3 0.00390625 5.48046875 C-0.47175781 6.37378906 -0.94742188 7.26710938 -1.4375 8.1875 C-1.91058594 9.08855469 -2.38367188 9.98960938 -2.87109375 10.91796875 C-3.24363281 11.60503906 -3.61617187 12.29210937 -4 13 C-4.66 13 -5.32 13 -6 13 C-6 12.01 -6 11.02 -6 10 C-5.34 10 -4.68 10 -4 10 C-4 8.68 -4 7.36 -4 6 C-3.34 6 -2.68 6 -2 6 C-1.34 4.02 -0.68 2.04 0 0 Z " fill="#DCA994" transform="translate(160,72)"/>
<path d="M0 0 C0.12375 0.639375 0.2475 1.27875 0.375 1.9375 C0.684375 2.9584375 0.684375 2.9584375 1 4 C1.66 4.33 2.32 4.66 3 5 C2 6 2 6 -0.5625 6.0625 C-1.7690625 6.0315625 -1.7690625 6.0315625 -3 6 C-3.33 5.01 -3.66 4.02 -4 3 C-2.68 2.01 -1.36 1.02 0 0 Z " fill="#121110" transform="translate(170,93)"/>
<path d="M0 0 C4.455 2.97 4.455 2.97 9 6 C8.01 6.33 7.02 6.66 6 7 C4.32260138 6.01810813 2.65532623 5.01866229 1 4 C0.01 4.495 0.01 4.495 -1 5 C-0.67 3.35 -0.34 1.7 0 0 Z " fill="#DDBFAB" transform="translate(28,76)"/>
<path d="M0 0 C0.94696598 2.55680815 1.04509772 3.83600828 0.3125 6.5 C-1.11219358 9.21370205 -2.73212969 10.95891672 -5 13 C-3.58192622 8.52761347 -1.88695626 4.28853694 0 0 Z " fill="#4A1E19" transform="translate(337,42)"/>
<path d="M0 0 C1.34173403 0.92543709 2.67320159 1.86577405 4 2.8125 C5.11375 3.59560547 5.11375 3.59560547 6.25 4.39453125 C6.8275 4.92433594 7.405 5.45414063 8 6 C8 6.99 8 7.98 8 9 C7.01 8.67 6.02 8.34 5 8 C4.67 7.01 4.34 6.02 4 5 C1.98491642 4.26676204 1.98491642 4.26676204 0 4 C0 2.68 0 1.36 0 0 Z " fill="#462A20" transform="translate(251,35)"/>
<path d="M0 0 C2 2 2 2 2.1953125 3.9453125 C2.13020833 5.96354167 2.06510417 7.98177083 2 10 C0.68 9.67 -0.64 9.34 -2 9 C-1.67 8.67 -1.34 8.34 -1 8 C-0.76924918 6.65252916 -0.58846937 5.29622435 -0.4375 3.9375 C-0.293125 2.638125 -0.14875 1.33875 0 0 Z " fill="#4A2618" transform="translate(200,90)"/>
<path d="M0 0 C0.33 0.66 0.66 1.32 1 2 C0.06553465 4.03144641 -0.93224776 6.03533587 -2 8 C-3.65 8 -5.3 8 -7 8 C-6.02133662 6.85373678 -5.04205413 5.70800212 -4.0625 4.5625 C-3.51722656 3.92441406 -2.97195312 3.28632812 -2.41015625 2.62890625 C-1.63204305 1.73008851 -0.84063472 0.84063472 0 0 Z " fill="#DEB4A1" transform="translate(62,74)"/>
<path d="M0 0 C4.83256305 0.41421969 6.82679218 2.46413986 10 6 C7.69 5.67 5.38 5.34 3 5 C2.87625 4.360625 2.7525 3.72125 2.625 3.0625 C2.315625 2.0415625 2.315625 2.0415625 2 1 C1.34 0.67 0.68 0.34 0 0 Z " fill="#4F1913" transform="translate(307,32)"/>
<path d="M0 0 C7.425 0.99 7.425 0.99 15 2 C15 2.33 15 2.66 15 3 C10.38 3 5.76 3 1 3 C0.67 2.01 0.34 1.02 0 0 Z " fill="#130001" transform="translate(287,87)"/>
<path d="M0 0 C0.66 0.33 1.32 0.66 2 1 C1.54917531 2.46067199 1.08906463 3.91848032 0.625 5.375 C0.36976562 6.18710937 0.11453125 6.99921875 -0.1484375 7.8359375 C-1 10 -1 10 -3 12 C-2.49202991 7.6822542 -1.80317221 3.96697886 0 0 Z " fill="#FBE7D7" transform="translate(25,48)"/>
<path d="M0 0 C0.75 1.75 0.75 1.75 1 4 C-0.9375 6.25 -0.9375 6.25 -3 8 C-3.33 7.01 -3.66 6.02 -4 5 C-3.34 4.01 -2.68 3.02 -2 2 C-1.34 2 -0.68 2 0 2 C0 1.34 0 0.68 0 0 Z " fill="#E5CBB6" transform="translate(66,102)"/>
<path d="M0 0 C2.0625 2.25 2.0625 2.25 4 5 C3.75 7.3125 3.75 7.3125 3 9 C0.90250005 6.64031256 0.03094296 5.45383006 -0.1875 2.25 C-0.125625 1.5075 -0.06375 0.765 0 0 Z " fill="#311412" transform="translate(200,76)"/>
<path d="M0 0 C2.96052484 3.36423277 3.92289822 6.69159287 5 11 C4.01 10.67 3.02 10.34 2 10 C0.47839986 6.3962102 0 3.94779314 0 0 Z " fill="#401C17" transform="translate(346,31)"/>
<path d="M0 0 C0.99 0.33 1.98 0.66 3 1 C3 2.65 3 4.3 3 6 C1.68 5.67 0.36 5.34 -1 5 C-0.67 3.35 -0.34 1.7 0 0 Z " fill="#2A0C09" transform="translate(343,29)"/>
<path d="M0 0 C1.875 0.5625 1.875 0.5625 4 2 C5.25 5.625 5.25 5.625 6 9 C0.42857143 3.85714286 0.42857143 3.85714286 0 0 Z " fill="#602523" transform="translate(267,83)"/>
<path d="M0 0 C1.32 0.33 2.64 0.66 4 1 C2.07423885 3.43929746 0.19909405 5.80090595 -2 8 C-2 6.35 -2 4.7 -2 3 C-1.34 3 -0.68 3 0 3 C0 2.01 0 1.02 0 0 Z " fill="#3C1D17" transform="translate(281,48)"/>
<path d="M0 0 C0.99 0.495 0.99 0.495 2 1 C2.73075648 3.3140622 3.40138258 5.64828869 4 8 C3.34 8 2.68 8 2 8 C2 7.34 2 6.68 2 6 C1.34 6 0.68 6 0 6 C0 4.02 0 2.04 0 0 Z " fill="#4C1715" transform="translate(366,77)"/>
<path d="M0 0 C0 0.99 0 1.98 0 3 C-0.66 3 -1.32 3 -2 3 C-1.67 3.99 -1.34 4.98 -1 6 C-2.65 6 -4.3 6 -6 6 C-6 5.34 -6 4.68 -6 4 C-4.03852126 2.61061923 -2.03833424 1.2739589 0 0 Z " fill="#E3E0D9" transform="translate(137,77)"/>
<path d="M0 0 C0.99 0.33 1.98 0.66 3 1 C3.6875 3.0625 3.6875 3.0625 4 5 C2.68 5.33 1.36 5.66 0 6 C-1.125 2.25 -1.125 2.25 0 0 Z " fill="#EFCBBB" transform="translate(24,71)"/>
</svg>
