<?xml version="1.0" encoding="UTF-8"?>
<svg version="1.1" xmlns="http://www.w3.org/2000/svg" width="500" height="500">
<path d="M0 0 C1.27423828 -0.00193359 1.27423828 -0.00193359 2.57421875 -0.00390625 C3.46753906 -0.00003906 4.36085937 0.00382813 5.28125 0.0078125 C6.62123047 0.00201172 6.62123047 0.00201172 7.98828125 -0.00390625 C8.83777344 -0.00261719 9.68726563 -0.00132812 10.5625 0 C11.34689453 0.00112793 12.13128906 0.00225586 12.93945312 0.00341797 C14.78125 0.1328125 14.78125 0.1328125 15.78125 1.1328125 C15.87621708 3.53629536 15.90683862 5.91092232 15.89477539 8.31469727 C15.89492142 9.06586823 15.89506744 9.81703918 15.8952179 10.5909729 C15.89451863 13.08541709 15.88672564 15.57978753 15.87890625 18.07421875 C15.87704212 19.79914814 15.87561819 21.52407807 15.87461853 23.24900818 C15.87079297 27.79793753 15.86096238 32.34683517 15.84991455 36.89575195 C15.83970124 41.53401256 15.83512108 46.17227827 15.83007812 50.81054688 C15.81934014 59.91798272 15.80226327 69.02539498 15.78125 78.1328125 C17.04598145 78.28443848 18.31071289 78.43606445 19.61376953 78.59228516 C22.74869153 78.96812432 25.64857205 79.51238884 28.65625 80.5078125 C29.39617187 80.74242187 30.13609375 80.97703125 30.8984375 81.21875 C32.78125 82.1328125 32.78125 82.1328125 34.78125 85.1328125 C35.03885279 87.82733771 34.87025053 90.41829625 34.78125 93.1328125 C30.45802939 95.28548184 26.60890812 95.33635651 21.890625 95.14453125 C21.14540588 95.12187698 20.40018677 95.09922272 19.63238525 95.07588196 C18.06562652 95.02612093 16.4990244 94.97118933 14.93261719 94.91137695 C12.52563649 94.82009962 10.11856927 94.7456648 7.7109375 94.67382812 C6.18746718 94.62337725 4.66402789 94.57197854 3.140625 94.51953125 C2.05633209 94.48505135 2.05633209 94.48505135 0.95013428 94.44987488 C-4.10242864 94.24913386 -4.10242864 94.24913386 -5.21875 93.1328125 C-5.37661308 91.28106544 -5.46982356 89.4237214 -5.53515625 87.56640625 C-5.59799805 85.8793457 -5.59799805 85.8793457 -5.66210938 84.15820312 C-5.70142578 82.97419922 -5.74074219 81.79019531 -5.78125 80.5703125 C-5.84602539 78.78850586 -5.84602539 78.78850586 -5.91210938 76.97070312 C-6.01858546 74.02486466 -6.12059841 71.0789382 -6.21875 68.1328125 C-6.58637451 68.96159912 -6.95399902 69.79038574 -7.33276367 70.64428711 C-12.86774991 82.88129321 -20.58068495 90.35729534 -33.21875 95.1328125 C-46.01373284 97.85690562 -57.08975043 95.79603517 -68.21875 89.1328125 C-76.25678936 83.54609011 -81.7188045 75.63260541 -84.21875 66.1328125 C-84.58226563 67.11121094 -84.58226563 67.11121094 -84.953125 68.109375 C-86.91207715 73.21771944 -88.8156157 77.82217572 -92.21875 82.1328125 C-92.87875 82.1328125 -93.53875 82.1328125 -94.21875 82.1328125 C-95.6793785 84.78020166 -96.21875 86.02729584 -96.21875 89.1328125 C-97.82953044 96.91058093 -101.62928005 102.64150014 -107.94921875 107.44921875 C-116.52558965 112.76774624 -124.82905261 112.70679137 -134.3828125 110.671875 C-140.84301138 108.690061 -146.96502558 103.83535977 -150.4765625 98.06640625 C-151.21875 96.1328125 -151.21875 96.1328125 -151.21875 93.1328125 C-147.58050478 93.67949183 -145.37703143 94.57159706 -142.40625 96.6953125 C-135.94989325 100.38619644 -128.41631052 100.27864016 -121.21875 99.1328125 C-116.99237525 97.83856891 -113.12077773 96.20206963 -109.21875 94.1328125 C-109.7967334 94.29289795 -110.3747168 94.4529834 -110.97021484 94.61791992 C-120.77554145 96.8632439 -132.47427622 96.15697338 -141.21875 91.1328125 C-142.270625 90.5346875 -143.3225 89.9365625 -144.40625 89.3203125 C-152.59215099 82.95350062 -159.80160562 74.80863348 -161.21875 64.1328125 C-161.94954235 50.92233544 -160.8230452 40.68242662 -152.21875 30.1328125 C-144.0806602 21.63302982 -135.98942024 17.21207166 -124.21875 16.1328125 C-113.75232199 16.1328125 -104.39142293 19.71500799 -96.21875 26.1328125 C-95.61933594 26.5865625 -95.01992187 27.0403125 -94.40234375 27.5078125 C-93.21875 29.1328125 -93.21875 29.1328125 -93.26171875 31.546875 C-94.45179605 34.76251243 -95.9665621 36.24954394 -98.53125 38.5078125 C-99.31113281 39.21679688 -100.09101562 39.92578125 -100.89453125 40.65625 C-103.21875 42.1328125 -103.21875 42.1328125 -105.28515625 41.984375 C-107.22203325 41.13136654 -109.02811155 40.22059589 -110.84375 39.1328125 C-116.50747954 35.77652833 -120.65783131 35.49531433 -127.21875 36.1328125 C-132.51077566 37.74228807 -136.34304587 40.33997228 -139.21875 45.1328125 C-142.04483558 51.17357044 -143.09424647 56.64336459 -141.21875 63.1328125 C-138.73336669 68.71749851 -135.65475592 72.17846146 -130.21875 75.1328125 C-124.75677003 76.95347249 -118.94074975 77.34349299 -113.6015625 74.96875 C-108.97046155 72.00788218 -107.16172448 70.03776997 -104.21875 65.1328125 C-109.49875 65.1328125 -114.77875 65.1328125 -120.21875 65.1328125 C-121.52334914 62.52361422 -121.3514094 60.54338635 -121.34375 57.6328125 C-121.34632812 56.653125 -121.34890625 55.6734375 -121.3515625 54.6640625 C-121.21875 52.1328125 -121.21875 52.1328125 -120.21875 50.1328125 C-108.66875 49.8028125 -97.11875 49.4728125 -85.21875 49.1328125 C-83.89875 45.5028125 -82.57875 41.8728125 -81.21875 38.1328125 C-75.89295441 29.1381355 -70.11850997 22.03720382 -60.21875 18.1328125 C-58.86523438 17.59720703 -58.86523438 17.59720703 -57.484375 17.05078125 C-47.46755679 14.23504886 -35.35030201 15.12660794 -26.21875 20.1328125 C-17.10782258 26.03063856 -10.12690455 33.92340436 -6.21875 44.1328125 C-6.19369385 42.83545166 -6.1686377 41.53809082 -6.14282227 40.20141602 C-6.04893248 35.40622394 -5.94866751 30.611183 -5.84643555 25.81616211 C-5.80301666 23.73742193 -5.76134688 21.65864447 -5.72143555 19.57983398 C-5.66390079 16.59868105 -5.60015881 13.61771701 -5.53515625 10.63671875 C-5.51844376 9.70130753 -5.50173126 8.7658963 -5.48451233 7.80213928 C-5.46456711 6.94132248 -5.44462189 6.08050568 -5.42407227 5.19360352 C-5.40852798 4.43193375 -5.3929837 3.67026398 -5.37696838 2.88551331 C-5.06229685 -0.60033349 -3.01432361 0.00433448 0 0 Z " fill="#F7EEDF" transform="translate(208.21875,186.8671875)"/>
<path d="M0 0 C3.11942318 1.03599425 3.96557531 1.94064374 5.64404297 4.8347168 C6.17143066 6.02750244 6.69881836 7.22028809 7.2421875 8.44921875 C7.5330423 9.09889114 7.82389709 9.74856354 8.12356567 10.41792297 C9.05287 12.50262781 9.96376406 14.59484448 10.875 16.6875 C11.47934856 18.04542098 12.08480749 19.40284835 12.69140625 20.75976562 C15.60481799 27.3142027 18.38796506 33.90491975 21.0078125 40.58203125 C24.01712664 48.21129989 27.45545638 55.60679512 31 63 C31.01030746 62.22547989 31.02061493 61.45095978 31.03123474 60.65296936 C31.12904297 53.36871079 31.23153311 46.08454054 31.33933926 38.80042362 C31.39460231 35.05521202 31.44802755 31.30999266 31.49731445 27.56469727 C31.54490835 23.95311414 31.59724906 20.34162868 31.65294075 16.73016167 C31.67338694 15.34942481 31.69209622 13.96866114 31.70907402 12.58787727 C31.7330678 10.66016686 31.76370264 8.73254251 31.79467773 6.80493164 C31.81022202 5.70572891 31.8257663 4.60652618 31.84178162 3.47401428 C32 1 32 1 33 0 C34.83115883 -0.09851171 36.66619933 -0.12972629 38.5 -0.125 C39.5003125 -0.12757813 40.500625 -0.13015625 41.53125 -0.1328125 C44 0 44 0 45 1 C45.09376053 2.81055025 45.1174411 4.62477201 45.11352539 6.43774414 C45.11344986 7.59887222 45.11337433 8.76000031 45.11329651 9.95631409 C45.10813522 11.219832 45.10297394 12.48334991 45.09765625 13.78515625 C45.09553383 15.71408974 45.09553383 15.71408974 45.09336853 17.68199158 C45.08954418 21.10643443 45.07971462 24.53083509 45.06866455 27.95526123 C45.05844864 31.44738189 45.05387053 34.93950934 45.04882812 38.43164062 C45.03809226 45.28777953 45.02049614 52.1438834 45 59 C51.93 59 58.86 59 66 59 C68.26562116 64.6640529 68.14440994 66.27795028 67 72 C64.72434378 73.13782811 63.4183298 73.14368888 60.88916016 73.17700195 C59.6174144 73.19625481 59.6174144 73.19625481 58.31997681 73.21589661 C57.40227509 73.22328354 56.48457336 73.23067047 55.5390625 73.23828125 C54.59694916 73.246353 53.65483582 73.25442474 52.68417358 73.26274109 C50.68855634 73.2765842 48.6929154 73.28730534 46.69726562 73.29516602 C43.64407604 73.31239237 40.59196542 73.3562778 37.5390625 73.40039062 C35.60157047 73.41051626 33.66406923 73.41903277 31.7265625 73.42578125 C30.35608261 73.45204338 30.35608261 73.45204338 28.95791626 73.47883606 C22.62551768 73.45714644 22.62551768 73.45714644 19.48486328 71.16186523 C16.49577796 66.80994966 14.91621533 61.89699472 13 57 C5.08 56.67 -2.84 56.34 -11 56 C-11.33 57.65 -11.66 59.3 -12 61 C-12.62654306 62.76476294 -13.29377216 64.51558751 -14 66.25 C-14.350625 67.12140625 -14.70125 67.9928125 -15.0625 68.890625 C-16 71 -16 71 -17 72 C-19.01964199 72.07244053 -21.04167124 72.08377188 -23.0625 72.0625 C-24.16722656 72.05347656 -25.27195312 72.04445313 -26.41015625 72.03515625 C-27.26480469 72.02355469 -28.11945313 72.01195312 -29 72 C-29.33 71.34 -29.66 70.68 -30 70 C-29.67 69.34 -29.34 68.68 -29 68 C-29.88751953 68.41572266 -29.88751953 68.41572266 -30.79296875 68.83984375 C-40.30478397 73.20007226 -48.40190276 74.36371491 -58.48046875 71.03515625 C-67.7616721 67.22194867 -73.71472511 60.96918 -78 52 C-78.33773437 52.5775 -78.67546875 53.155 -79.0234375 53.75 C-79.69246094 54.86375 -79.69246094 54.86375 -80.375 56 C-81.03628906 57.11375 -81.03628906 57.11375 -81.7109375 58.25 C-82.13632812 58.8275 -82.56171875 59.405 -83 60 C-83.66 60 -84.32 60 -85 60 C-85.34998047 60.89332031 -85.34998047 60.89332031 -85.70703125 61.8046875 C-88.63953551 66.78374307 -95.14555863 69.23023188 -100.3125 71.375 C-110.1837475 73.0480928 -120.57826599 73.01084411 -129.2890625 67.5703125 C-132.41131225 65.28823178 -135.42495092 62.89791456 -138 60 C-138 59.34 -138 58.68 -138 58 C-138.66 58 -139.32 58 -140 58 C-140.81674796 56.25197854 -141.62823451 54.50149811 -142.4375 52.75 C-142.88996094 51.77546875 -143.34242188 50.8009375 -143.80859375 49.796875 C-147.32209301 41.5487915 -147.15887754 32.32859625 -144.125 23.9375 C-142.8848488 20.88305352 -141.50375074 17.93299131 -140 15 C-139.34 15 -138.68 15 -138 15 C-137.79375 14.443125 -137.5875 13.88625 -137.375 13.3125 C-133.75056906 7.21686614 -126.78909663 3.57207302 -120.203125 1.41015625 C-109.47381288 -0.58732207 -99.84883155 0.79477281 -90.6015625 6.47265625 C-84.65670055 10.64985991 -81.29106148 15.58565664 -78 22 C-77.54109375 21.22914063 -77.0821875 20.45828125 -76.609375 19.6640625 C-75.99578125 18.66117188 -75.3821875 17.65828125 -74.75 16.625 C-74.14671875 15.62726563 -73.5434375 14.62953125 -72.921875 13.6015625 C-71.03641221 11.0492897 -69.92773776 10.07523113 -67 9 C-67 8.34 -67 7.68 -67 7 C-65.3970947 6.18501438 -63.79262722 5.37310073 -62.1875 4.5625 C-61.29417969 4.11003906 -60.40085937 3.65757812 -59.48046875 3.19140625 C-52.16063501 -0.3244194 -42.78422518 -0.17302739 -35.0625 2.1875 C-30.85248988 3.84312196 -27.47599177 6.11566641 -24 9 C-24 9.66 -24 10.32 -24 11 C-23.34 11 -22.68 11 -22 11 C-21.0625 13.0625 -21.0625 13.0625 -21 16 C-22.94615265 18.84704231 -25.1752968 21.02618075 -28 23 C-31.51366983 23.25097642 -32.60665766 22.33871146 -35.25 20.0625 C-38.98042851 17.26467862 -42.34932918 16.2340435 -47 16 C-52.45203091 16.92932345 -57.11588035 19.00164154 -61 23 C-64.48974008 28.85777799 -65.55571812 34.22023888 -65 41 C-63.1376029 48.06813357 -60.26074114 53.0634319 -54 57 C-49.03562717 58.65479094 -43.5732844 59.23321761 -38.7421875 56.91796875 C-37.39789208 56.03114269 -36.06987149 55.11901015 -34.76171875 54.1796875 C-32.58146032 52.71973618 -30.59848394 52.24360787 -28 52 C-27.34 52.99 -26.68 53.98 -26 55 C-25.34 55 -24.68 55 -24 55 C-23.69707031 54.18917969 -23.39414062 53.37835938 -23.08203125 52.54296875 C-22.66308594 51.43566406 -22.24414062 50.32835937 -21.8125 49.1875 C-21.40644531 48.10855469 -21.00039063 47.02960938 -20.58203125 45.91796875 C-18.99567523 41.87544056 -17.17790016 37.94562162 -15.36694336 33.99975586 C-12.47792826 27.65981506 -9.71725544 21.2619905 -6.9296875 14.87695312 C-4.72943507 9.85609931 -2.52978657 4.86432115 0 0 Z M1 28 C-1.63365987 32.9221313 -3.64475824 37.57903298 -5 43 C-1.04 43 2.92 43 7 43 C6.23239022 39.16195111 5.40495674 36.23779856 3.9375 32.6875 C3.57527344 31.80449219 3.21304688 30.92148438 2.83984375 30.01171875 C2.56269531 29.34785156 2.28554688 28.68398437 2 28 C1.67 28 1.34 28 1 28 Z " fill="#0D0707" transform="translate(384,209)"/>
<path d="M0 0 C3.11942318 1.03599425 3.96557531 1.94064374 5.64404297 4.8347168 C6.43512451 6.62389526 6.43512451 6.62389526 7.2421875 8.44921875 C7.5330423 9.09889114 7.82389709 9.74856354 8.12356567 10.41792297 C9.05287 12.50262781 9.96376406 14.59484448 10.875 16.6875 C11.47934856 18.04542098 12.08480749 19.40284835 12.69140625 20.75976562 C15.60481799 27.3142027 18.38796506 33.90491975 21.0078125 40.58203125 C24.01712664 48.21129989 27.45545638 55.60679512 31 63 C31.01030746 62.22547989 31.02061493 61.45095978 31.03123474 60.65296936 C31.12904297 53.36871079 31.23153311 46.08454054 31.33933926 38.80042362 C31.39460231 35.05521202 31.44802755 31.30999266 31.49731445 27.56469727 C31.54490835 23.95311414 31.59724906 20.34162868 31.65294075 16.73016167 C31.67338694 15.34942481 31.69209622 13.96866114 31.70907402 12.58787727 C31.7330678 10.66016686 31.76370264 8.73254251 31.79467773 6.80493164 C31.81022202 5.70572891 31.8257663 4.60652618 31.84178162 3.47401428 C32 1 32 1 33 0 C34.83115883 -0.09851171 36.66619933 -0.12972629 38.5 -0.125 C39.5003125 -0.12757813 40.500625 -0.13015625 41.53125 -0.1328125 C44 0 44 0 45 1 C45.09376053 2.81055025 45.1174411 4.62477201 45.11352539 6.43774414 C45.11341209 8.17943626 45.11341209 8.17943626 45.11329651 9.95631409 C45.10813522 11.219832 45.10297394 12.48334991 45.09765625 13.78515625 C45.0962413 15.07111191 45.09482635 16.35706757 45.09336853 17.68199158 C45.08954418 21.10643443 45.07971462 24.53083509 45.06866455 27.95526123 C45.05844864 31.44738189 45.05387053 34.93950934 45.04882812 38.43164062 C45.03809226 45.28777953 45.02049614 52.1438834 45 59 C51.93 59 58.86 59 66 59 C68.26562116 64.6640529 68.14440994 66.27795028 67 72 C64.72434378 73.13782811 63.4183298 73.14368888 60.88916016 73.17700195 C59.6174144 73.19625481 59.6174144 73.19625481 58.31997681 73.21589661 C57.40227509 73.22328354 56.48457336 73.23067047 55.5390625 73.23828125 C54.59694916 73.246353 53.65483582 73.25442474 52.68417358 73.26274109 C50.68855634 73.2765842 48.6929154 73.28730534 46.69726562 73.29516602 C43.64407604 73.31239237 40.59196542 73.3562778 37.5390625 73.40039062 C35.60157047 73.41051626 33.66406923 73.41903277 31.7265625 73.42578125 C30.35608261 73.45204338 30.35608261 73.45204338 28.95791626 73.47883606 C27.67671402 73.47444771 27.67671402 73.47444771 26.36962891 73.4699707 C25.62065338 73.47583694 24.87167786 73.48170319 24.1000061 73.48774719 C22 73 22 73 18 69 C16.35 65.04 14.7 61.08 13 57 C4.42 57 -4.16 57 -13 57 C-15.1066139 60.81800736 -15.1066139 60.81800736 -15.8125 64.5625 C-17 68 -17 68 -19.375 70 C-22.18585105 71.0708004 -23.26014988 71.11623524 -26 70 C-26.66 67.69 -27.32 65.38 -28 63 C-27.34 63 -26.68 63 -26 63 C-25.67 61.35 -25.34 59.7 -25 58 C-23.68 58 -22.36 58 -21 58 C-21.06199585 57.08577271 -21.06199585 57.08577271 -21.12524414 56.15307617 C-21.38336748 49.4024068 -20.12159163 44.46082178 -17.4375 38.3125 C-17.07615967 37.44818359 -16.71481934 36.58386719 -16.3425293 35.69335938 C-13.59776404 29.1938321 -10.6484184 22.79411766 -7.60546875 16.4296875 C-5.5678104 12.07673365 -3.74022414 7.65287453 -1.9453125 3.1953125 C-1 1 -1 1 0 0 Z M1 28 C-1.63365987 32.9221313 -3.64475824 37.57903298 -5 43 C-1.04 43 2.92 43 7 43 C6.23239022 39.16195111 5.40495674 36.23779856 3.9375 32.6875 C3.57527344 31.80449219 3.21304687 30.92148438 2.83984375 30.01171875 C2.56269531 29.34785156 2.28554688 28.68398437 2 28 C1.67 28 1.34 28 1 28 Z " fill="#0B0505" transform="translate(384,209)"/>
<path d="M0 0 C5.61 0.33 11.22 0.66 17 1 C17.4256567 10.73537188 17.79422202 20.46844413 18.06470966 30.20938683 C18.19256974 34.73341349 18.34458137 39.25383458 18.5534668 43.77490234 C18.75444309 48.14462197 18.88977881 52.51206079 18.98122215 56.88539505 C19.02721441 58.54701101 19.09620104 60.20816583 19.18929482 61.8678093 C19.87509467 74.48492609 19.87509467 74.48492609 16.75167465 78.67438507 C13.25661593 82.14759271 9.27043447 84.58728471 5 87 C3.35 87.99 1.7 88.98 0 90 C0 60.3 0 30.6 0 0 Z " fill="#F9F3E4" transform="translate(205,188)"/>
<path d="M0 0 C4.98960821 2.84831886 8.32952298 6.91938165 11.125 11.875 C12.72856126 18.44960116 12.05405065 24.32440957 8.75 30.22265625 C5.37793339 35.44714103 1.59855256 37.99429279 -4.25 40.1875 C-10.1647378 40.92684222 -15.11951103 40.65396549 -20.25 37.4375 C-25.90919908 32.89177417 -28.7179485 29.02233882 -29.56640625 21.7109375 C-29.96706937 14.97638722 -29.10037785 10.66778031 -24.97265625 5.28125 C-18.40592695 -1.74708612 -8.92877447 -4.02569022 0 0 Z " fill="#090908" transform="translate(172.25,223.5625)"/>
<path d="M0 0 C5.05514478 3.84513672 8.5783071 7.77413269 9.625 14.17578125 C9.90123246 20.4169084 8.98899373 25.47016846 5.1875 30.5 C-0.15822781 36.24749441 -3.84311831 38.24391086 -11.6875 38.75 C-16.88753694 38.632926 -20.8988116 37.33200658 -24.734375 33.66015625 C-30.44453221 27.32471324 -32.34235546 23.15939107 -32.1953125 14.546875 C-31.46141737 8.70566886 -28.49120385 5.17870385 -24.4375 1.125 C-16.97119836 -3.49699625 -7.6205274 -4.66614656 0 0 Z " fill="#F6EFE2" transform="translate(284.8125,227.5)"/>
<path d="M0 0 C1.23556641 0.01740234 1.23556641 0.01740234 2.49609375 0.03515625 C3.32238281 0.04417969 4.14867187 0.05320313 5 0.0625 C5.63808594 0.07410156 6.27617187 0.08570313 6.93359375 0.09765625 C7.75102336 3.67101019 8.05569645 6.95980276 8.04711914 10.62231445 C8.04704361 11.7030574 8.04696808 12.78380035 8.04689026 13.89729309 C8.04172897 15.05267075 8.03656769 16.2080484 8.03125 17.3984375 C8.02983505 18.58994919 8.0284201 19.78146088 8.02696228 21.00907898 C8.02137103 24.80946376 8.00882007 28.60978932 7.99609375 32.41015625 C7.99107762 34.98893144 7.98651491 37.56770755 7.98242188 40.14648438 C7.97140446 46.46356182 7.95467497 52.7806048 7.93359375 59.09765625 C8.52897949 59.09241943 9.12436523 59.08718262 9.73779297 59.08178711 C12.42804922 59.06103626 15.11828864 59.04800218 17.80859375 59.03515625 C18.74574219 59.02677734 19.68289063 59.01839844 20.6484375 59.00976562 C21.99228516 59.00493164 21.99228516 59.00493164 23.36328125 59 C24.60440674 58.99214478 24.60440674 58.99214478 25.87060547 58.98413086 C27.93359375 59.09765625 27.93359375 59.09765625 29.93359375 60.09765625 C29.93359375 63.06765625 29.93359375 66.03765625 29.93359375 69.09765625 C25.3946167 69.12231017 20.85567832 69.14049414 16.31665039 69.15258789 C14.77139609 69.15762765 13.22614659 69.16445945 11.6809082 69.1730957 C9.46434346 69.18517701 7.24784157 69.19088798 5.03125 69.1953125 C3.98905052 69.20305443 3.98905052 69.20305443 2.92579651 69.21095276 C1.26130045 69.21114902 -0.40306124 69.15954754 -2.06640625 69.09765625 C-3.90323847 67.26082403 -3.19414818 64.31110153 -3.19580078 61.84960938 C-3.1975531 61.19758041 -3.19930542 60.54555145 -3.20111084 59.87376404 C-3.20552829 57.70878472 -3.20259176 55.54388646 -3.19921875 53.37890625 C-3.19989182 51.88057438 -3.20086187 50.38224262 -3.20211792 48.88391113 C-3.20359475 45.73981692 -3.20144083 42.59575108 -3.19677734 39.45166016 C-3.19108005 35.41279086 -3.19435914 31.37398801 -3.20034981 27.33512115 C-3.20395583 24.24000545 -3.20281664 21.1449056 -3.20022202 18.04978943 C-3.19955286 16.5601755 -3.20038077 15.07056015 -3.20270157 13.58094788 C-3.20522878 11.5024939 -3.20138658 9.42414894 -3.19580078 7.34570312 C-3.19500519 6.16069214 -3.19420959 4.97568115 -3.19338989 3.75476074 C-3.02077147 0.14275858 -3.02077147 0.14275858 0 0 Z " fill="#060203" transform="translate(420.06640625,210.90234375)"/>
<path d="M0 0 C1.2065625 0.0309375 1.2065625 0.0309375 2.4375 0.0625 C2.1075 1.0525 1.7775 2.0425 1.4375 3.0625 C1.9325 4.5475 1.9325 4.5475 2.4375 6.0625 C-0.12929208 14.08547851 -5.13602623 20.10359781 -12.50390625 24.12109375 C-20.42925425 27.46735179 -29.48045803 28.16226741 -37.5625 25.0625 C-43.30807503 22.02515019 -47.90015802 18.44156478 -51.5625 13.0625 C-52.375 10.1875 -52.375 10.1875 -52.5625 8.0625 C-48.92425478 8.60917933 -46.72078143 9.50128456 -43.75 11.625 C-37.26970301 15.32956978 -29.78135367 15.17377893 -22.5625 14.0625 C-16.57939212 12.33521419 -11.43739039 9.94646641 -6.5625 6.0625 C-7.0575 4.5775 -7.0575 4.5775 -7.5625 3.0625 C-6.6034375 2.5984375 -6.6034375 2.5984375 -5.625 2.125 C-1.57454819 0.03840361 -1.57454819 0.03840361 0 0 Z " fill="#F4DFCD" transform="translate(109.5625,271.9375)"/>
<path d="M0 0 C8.3746988 2.06204819 8.3746988 2.06204819 11 6 C11.25760279 8.69452521 11.08900053 11.28548375 11 14 C6.66223833 16.16703183 2.80740064 16.18883544 -1.92578125 15.9765625 C-3.04716743 15.93902359 -3.04716743 15.93902359 -4.19120789 15.90072632 C-6.56546141 15.81893204 -8.93883179 15.72218881 -11.3125 15.625 C-12.92769897 15.56671879 -14.54293358 15.50941643 -16.15820312 15.453125 C-20.1059714 15.31341441 -24.05301631 15.16029968 -28 15 C-26.11920402 10.75485512 -23.22718344 8.57444988 -19.5625 5.875 C-18.97662109 5.43285156 -18.39074219 4.99070312 -17.78710938 4.53515625 C-11.00093704 -0.56410151 -8.24598662 -1.46146449 0 0 Z " fill="#0F0706" transform="translate(232,266)"/>
<path d="M0 0 C1.27423828 -0.00193359 1.27423828 -0.00193359 2.57421875 -0.00390625 C3.91419922 0.00189453 3.91419922 0.00189453 5.28125 0.0078125 C6.17457031 0.00394531 7.06789062 0.00007812 7.98828125 -0.00390625 C8.83777344 -0.00261719 9.68726563 -0.00132812 10.5625 0 C11.34689453 0.00112793 12.13128906 0.00225586 12.93945312 0.00341797 C14.78125 0.1328125 14.78125 0.1328125 15.78125 1.1328125 C15.87621708 3.53629536 15.90683862 5.91092232 15.89477539 8.31469727 C15.89492142 9.06586823 15.89506744 9.81703918 15.8952179 10.5909729 C15.89451863 13.08541709 15.88672564 15.57978753 15.87890625 18.07421875 C15.87704212 19.79914814 15.87561819 21.52407807 15.87461853 23.24900818 C15.87079297 27.79793753 15.86096238 32.34683517 15.84991455 36.89575195 C15.83970124 41.53401256 15.83512108 46.17227827 15.83007812 50.81054688 C15.81934014 59.91798272 15.80226327 69.02539498 15.78125 78.1328125 C15.45125 78.1328125 15.12125 78.1328125 14.78125 78.1328125 C14.01333095 73.37412965 13.65888391 68.82233392 13.66772461 64.00415039 C13.66757858 63.33013184 13.66743256 62.65611328 13.6672821 61.96166992 C13.66797231 59.75956878 13.67572236 57.5575549 13.68359375 55.35546875 C13.68546111 53.81847683 13.68688351 52.28148431 13.68788147 50.74449158 C13.69168163 46.71843799 13.7014903 42.69242104 13.71258545 38.66638184 C13.7228536 34.55037939 13.72739062 30.43437097 13.73242188 26.31835938 C13.74311503 18.25649369 13.76016109 10.19465767 13.78125 2.1328125 C13.00998779 2.29958496 12.23872559 2.46635742 11.4440918 2.63818359 C8.64295963 3.15850025 6.41644234 3.07381739 3.59375 2.7578125 C2.30404297 2.62246094 2.30404297 2.62246094 0.98828125 2.484375 C-1.21875 2.1328125 -1.21875 2.1328125 -3.21875 1.1328125 C-3.21875 31.1628125 -3.21875 61.1928125 -3.21875 92.1328125 C-4.20875 92.6278125 -4.20875 92.6278125 -5.21875 93.1328125 C-5.54875 84.8828125 -5.87875 76.6328125 -6.21875 68.1328125 C-7.20875 70.1128125 -8.19875 72.0928125 -9.21875 74.1328125 C-10.3875185 70.62650701 -9.65106796 68.96158547 -8.70800781 65.5 C-7.79480918 61.08164971 -8.01320472 56.62476084 -8.09375 52.1328125 C-8.10277344 51.16730469 -8.11179688 50.20179688 -8.12109375 49.20703125 C-8.14444365 46.84869151 -8.17718953 44.49088964 -8.21875 42.1328125 C-7.55875 42.7928125 -6.89875 43.4528125 -6.21875 44.1328125 C-6.18116577 42.18677124 -6.18116577 42.18677124 -6.14282227 40.20141602 C-6.04893248 35.40622394 -5.94866751 30.611183 -5.84643555 25.81616211 C-5.80301666 23.73742193 -5.76134688 21.65864447 -5.72143555 19.57983398 C-5.66390079 16.59868105 -5.60015881 13.61771701 -5.53515625 10.63671875 C-5.51008751 9.23360191 -5.51008751 9.23360191 -5.48451233 7.80213928 C-5.46456711 6.94132248 -5.44462189 6.08050568 -5.42407227 5.19360352 C-5.40075584 4.05109886 -5.40075584 4.05109886 -5.37696838 2.88551331 C-5.06229685 -0.60033349 -3.01432361 0.00433448 0 0 Z " fill="#EDCFBA" transform="translate(208.21875,186.8671875)"/>
<path d="M0 0 C1.50046875 0.00386719 1.50046875 0.00386719 3.03125 0.0078125 C4.0315625 0.00523437 5.031875 0.00265625 6.0625 0 C8.53125 0.1328125 8.53125 0.1328125 9.53125 1.1328125 C9.62501053 2.94336275 9.6486911 4.75758451 9.64477539 6.57055664 C9.64469986 7.73168472 9.64462433 8.89281281 9.64454651 10.08912659 C9.63938522 11.3526445 9.63422394 12.61616241 9.62890625 13.91796875 C9.6274913 15.20392441 9.62607635 16.48988007 9.62461853 17.81480408 C9.62079418 21.23924693 9.61096462 24.66364759 9.59991455 28.08807373 C9.58969864 31.58019439 9.58512053 35.07232184 9.58007812 38.56445312 C9.56934226 45.42059203 9.55174614 52.2766959 9.53125 59.1328125 C16.46125 59.1328125 23.39125 59.1328125 30.53125 59.1328125 C32.79687116 64.7968654 32.67565994 66.41076278 31.53125 72.1328125 C29.23922012 73.27882744 27.9366831 73.26518489 25.38867188 73.27807617 C24.10724304 73.28764595 24.10724304 73.28764595 22.79992676 73.29740906 C21.41396301 73.29907829 21.41396301 73.29907829 20 73.30078125 C19.05314331 73.30410965 18.10628662 73.30743805 17.1307373 73.31086731 C15.12671394 73.31593496 13.12268211 73.31827569 11.11865234 73.31811523 C8.04380497 73.32030356 4.96931519 73.33846604 1.89453125 73.35742188 C-0.04947793 73.36035539 -1.99348883 73.36234047 -3.9375 73.36328125 C-4.86147583 73.37046677 -5.78545166 73.37765228 -6.73742676 73.38505554 C-7.59171265 73.38197891 -8.44599854 73.37890228 -9.32617188 73.37573242 C-10.07958862 73.37715744 -10.83300537 73.37858246 -11.60925293 73.38005066 C-13.46875 73.1328125 -13.46875 73.1328125 -15.46875 71.1328125 C-0.28875 71.1328125 14.89125 71.1328125 30.53125 71.1328125 C30.53125 68.1628125 30.53125 65.1928125 30.53125 62.1328125 C19.64125 61.6378125 19.64125 61.6378125 8.53125 61.1328125 C8.20125 41.6628125 7.87125 22.1928125 7.53125 2.1328125 C3.07625 2.6278125 3.07625 2.6278125 -1.46875 3.1328125 C-1.79875 24.5828125 -2.12875 46.0328125 -2.46875 68.1328125 C-3.45875 67.8028125 -4.44875 67.4728125 -5.46875 67.1328125 C-5.30765747 66.5992363 -5.14656494 66.0656601 -4.98059082 65.51591492 C-4.36174024 62.63458103 -4.31319736 59.95138537 -4.27929688 57.00317383 C-4.26257935 55.76541702 -4.24586182 54.52766022 -4.2286377 53.25239563 C-4.22195572 52.59434748 -4.21527374 51.93629932 -4.20838928 51.25831032 C-4.18729849 49.19513093 -4.16028508 47.132104 -4.13171387 45.0690155 C-4.06201473 39.94914373 -4.00236096 34.82916426 -3.94268799 29.70916748 C-3.89183026 25.37511684 -3.83705424 21.04115158 -3.77687073 16.70722008 C-3.75023483 14.67030214 -3.72946417 12.6333764 -3.7088623 10.59638977 C-3.69214478 9.36808945 -3.67542725 8.13978912 -3.65820312 6.87426758 C-3.64567505 5.78712967 -3.63314697 4.69999176 -3.62023926 3.57991028 C-3.41545897 0.27197022 -3.31241855 0.17819973 0 0 Z " fill="#401D16" transform="translate(419.46875,208.8671875)"/>
<path d="M0 0 C0.66 0.99 1.32 1.98 2 3 C1.34 3 0.68 3 0 3 C-0.33 3.99 -0.66 4.98 -1 6 C-1.66 6.66 -2.32 7.32 -3 8 C-3.99 8 -4.98 8 -6 8 C-6 8.66 -6 9.32 -6 10 C-11.14089921 10.90249856 -15.69726374 10.97986395 -20.9375 10.5625 C-21.62134766 10.51029297 -22.30519531 10.45808594 -23.00976562 10.40429688 C-24.67371169 10.27630102 -26.3369473 10.13912281 -28 10 C-28.33 8.35 -28.66 6.7 -29 5 C-21.90673679 3.27669093 -15.29031024 2.7505217 -8 3 C-7.67 2.34 -7.34 1.68 -7 1 C-4.67843403 0.59270772 -2.3431213 0.25561323 0 0 Z " fill="#FBF2E5" transform="translate(98,285)"/>
<path d="M0 0 C0.33 0 0.66 0 1 0 C1.33 30.03 1.66 60.06 2 91 C1.01 91.495 1.01 91.495 0 92 C-0.33 83.75 -0.66 75.5 -1 67 C-1.99 68.98 -2.98 70.96 -4 73 C-5.1687685 69.49369451 -4.43231796 67.82877297 -3.48925781 64.3671875 C-2.57605918 59.94883721 -2.79445472 55.49194834 -2.875 51 C-2.88402344 50.03449219 -2.89304688 49.06898438 -2.90234375 48.07421875 C-2.92569365 45.71587901 -2.95843953 43.35807714 -3 41 C-2.34 41.66 -1.68 42.32 -1 43 C-0.67 28.81 -0.34 14.62 0 0 Z " fill="#D5A491" transform="translate(203,188)"/>
<path d="M0 0 C0.33 0 0.66 0 1 0 C1.09765625 6.15234375 1.09765625 6.15234375 1 8 C0 9 0 9 -3.41821289 9.11352539 C-4.93636988 9.11336628 -6.45453229 9.10767226 -7.97265625 9.09765625 C-8.77029892 9.0962413 -9.56794159 9.09482635 -10.38975525 9.09336853 C-12.94737435 9.08775316 -15.50490718 9.07519812 -18.0625 9.0625 C-19.79231645 9.05748698 -21.52213426 9.05292373 -23.25195312 9.04882812 C-27.50133553 9.03777875 -31.75065312 9.02050386 -36 9 C-36 13.29 -36 17.58 -36 22 C-30.39 22 -24.78 22 -19 22 C-18 26 -18 26 -19.109375 27.921875 C-19.65078125 28.52515625 -20.1921875 29.1284375 -20.75 29.75 C-21.54664063 30.67039062 -21.54664063 30.67039062 -22.359375 31.609375 C-24 33 -24 33 -27 33 C-27 33.66 -27 34.32 -27 35 C-28.485 35.495 -28.485 35.495 -30 36 C-30.99 35.34 -31.98 34.68 -33 34 C-32.38511719 33.62488281 -31.77023438 33.24976563 -31.13671875 32.86328125 C-30.32847656 32.35152344 -29.52023438 31.83976562 -28.6875 31.3125 C-27.88699219 30.81363281 -27.08648437 30.31476563 -26.26171875 29.80078125 C-23.48763051 27.80784481 -23.48763051 27.80784481 -21 23 C-26.28 23 -31.56 23 -37 23 C-38.30459914 20.39080172 -38.1326594 18.41057385 -38.125 15.5 C-38.12757812 14.5203125 -38.13015625 13.540625 -38.1328125 12.53125 C-38 10 -38 10 -37 8 C-19.675 7.505 -19.675 7.505 -2 7 C-1.34 4.69 -0.68 2.38 0 0 Z " fill="#EA9D8F" transform="translate(125,229)"/>
<path d="M0 0 C0.99 0 1.98 0 3 0 C0.58581857 5.58883001 -3.92947586 8.58908147 -9.36328125 11.0859375 C-17.43414456 13.89207498 -25.19350697 13.40570522 -33 10 C-33 9.67 -33 9.34 -33 9 C-26.07 9 -19.14 9 -12 9 C-12 8.34 -12 7.68 -12 7 C-8.38936452 4.59290968 -5.20439152 3.79542542 -1 3 C-0.67 2.01 -0.34 1.02 0 0 Z " fill="#E9C8B5" transform="translate(104,286)"/>
<path d="M0 0 C0.66 0 1.32 0 2 0 C2 0.66 2 1.32 2 2 C2.66 2 3.32 2 4 2 C4.9375 4.0625 4.9375 4.0625 5 7 C3.05384735 9.84704231 0.8247032 12.02618075 -2 14 C-5.51366983 14.25097642 -6.60665766 13.33871146 -9.25 11.0625 C-13.92655955 7.55508034 -19.29141274 6.5672819 -25.0625 7.375 C-26.031875 7.58125 -27.00125 7.7875 -28 8 C-25.55686738 5.68828283 -24.35582792 5.01681435 -20.94140625 4.85546875 C-19.82636719 4.96503906 -18.71132813 5.07460937 -17.5625 5.1875 C-16.45003906 5.28417969 -15.33757812 5.38085938 -14.19140625 5.48046875 C-10.00528509 6.16193033 -7.02448033 6.97551967 -4 10 C-1.86124923 8.98239527 -1.86124923 8.98239527 0 7 C0.33380814 3.37436186 0.33380814 3.37436186 0 0 Z " fill="#391714" transform="translate(358,218)"/>
<path d="M0 0 C3.19849783 1.05919754 3.99962117 1.999353 5.73828125 4.96875 C6.51751953 6.71671875 6.51751953 6.71671875 7.3125 8.5 C8.11107422 10.24796875 8.11107422 10.24796875 8.92578125 12.03125 C9.45751953 13.50078125 9.45751953 13.50078125 10 15 C9.67 15.66 9.34 16.32 9 17 C5.26844842 13.87031158 4.63316936 11.74877018 4 7 C3.34 6.67 2.68 6.34 2 6 C2 5.34 2 4.68 2 4 C1.34 4 0.68 4 0 4 C-0.1546875 5.6396875 -0.1546875 5.6396875 -0.3125 7.3125 C-1.04848772 11.26007051 -1.37460439 11.42764269 -4 14 C-4.84575531 15.89992043 -4.84575531 15.89992043 -5.4375 17.9375 C-6.65857523 21.46432899 -8.07448618 23.57888511 -11 26 C-9.30694349 20.583992 -7.14636468 15.40737522 -4.9375 10.1875 C-4.57333984 9.31673828 -4.20917969 8.44597656 -3.83398438 7.54882812 C-3.48529297 6.72189453 -3.13660156 5.89496094 -2.77734375 5.04296875 C-2.46015381 4.29039795 -2.14296387 3.53782715 -1.81616211 2.76245117 C-1 1 -1 1 0 0 Z " fill="#3C1815" transform="translate(384,209)"/>
<path d="M0 0 C0.66 0 1.32 0 2 0 C1.3739007 3.62615842 0.38690533 6.84392368 -1 10.25 C-1.5259375 11.55710937 -1.5259375 11.55710937 -2.0625 12.890625 C-3 15 -3 15 -4 16 C-6.01964199 16.07244053 -8.04167124 16.08377188 -10.0625 16.0625 C-11.71958984 16.04896484 -11.71958984 16.04896484 -13.41015625 16.03515625 C-14.26480469 16.02355469 -15.11945313 16.01195312 -16 16 C-16.33 15.34 -16.66 14.68 -17 14 C-16.67 13.34 -16.34 12.68 -16 12 C-16.99 12.33 -17.98 12.66 -19 13 C-19 12.01 -19 11.02 -19 10 C-17.02 10 -15.04 10 -13 10 C-12.67 11.32 -12.34 12.64 -12 14 C-9.0434802 13.36646004 -6.45292525 12.79881185 -4 11 C-2.81758345 7.61175003 -2.81758345 7.61175003 -2 4 C-1.37530495 2.64649406 -0.7283669 1.30065517 0 0 Z " fill="#2E0F0D" transform="translate(371,265)"/>
<path d="M0 0 C-0.66 0.66 -1.32 1.32 -2 2 C-5.01305957 1.61121812 -6.39685311 0.73543126 -9 -1 C-11.22131423 -1.3650791 -11.22131423 -1.3650791 -13.66796875 -1.4140625 C-14.56064453 -1.45273438 -15.45332031 -1.49140625 -16.37304688 -1.53125 C-17.30181641 -1.5621875 -18.23058594 -1.593125 -19.1875 -1.625 C-20.12787109 -1.66367188 -21.06824219 -1.70234375 -22.03710938 -1.7421875 C-24.3578771 -1.83643187 -26.67863748 -1.92204025 -29 -2 C-29.33 -1.01 -29.66 -0.02 -30 1 C-33.3 1.33 -36.6 1.66 -40 2 C-28.32059273 -6.75955545 -12.85184356 -6.21773857 0 0 Z " fill="#E1B29B" transform="translate(182,207)"/>
<path d="M0 0 C0.66 0 1.32 0 2 0 C2.14695312 0.61488281 2.29390625 1.22976562 2.4453125 1.86328125 C3.92039146 7.39787952 3.92039146 7.39787952 8.1875 11.0625 C9.115625 11.371875 10.04375 11.68125 11 12 C11 13.65 11 15.3 11 17 C11.66 17 12.32 17 13 17 C12.67 18.65 12.34 20.3 12 22 C6.57172687 17.19210094 2.49885369 11.18472257 1 4 C0.34 4.99 -0.32 5.98 -1 7 C-0.67 4.69 -0.34 2.38 0 0 Z " fill="#F2D5C3" transform="translate(123,249)"/>
<path d="M0 0 C2.9364247 1.31632831 4.78257895 2.69729352 7 5 C8.05997848 5.83653829 9.12270093 6.66960634 10.1875 7.5 C11.115625 8.325 12.04375 9.15 13 10 C13 10.99 13 11.98 13 13 C14.65 13 16.3 13 18 13 C17.67 13.99 17.34 14.98 17 16 C10.03893474 14.43376032 5.05621897 9.89155793 1 4.1875 C0 2 0 2 0 0 Z " fill="#1E0D08" transform="translate(308,263)"/>
<path d="M0 0 C5.61 0 11.22 0 17 0 C18 4 18 4 16.890625 5.921875 C16.34921875 6.52515625 15.8078125 7.1284375 15.25 7.75 C14.45335938 8.67039062 14.45335938 8.67039062 13.640625 9.609375 C12 11 12 11 9 11 C9 11.66 9 12.32 9 13 C8.01 13.33 7.02 13.66 6 14 C5.01 13.34 4.02 12.68 3 12 C3.61488281 11.62488281 4.22976562 11.24976563 4.86328125 10.86328125 C5.67152344 10.35152344 6.47976562 9.83976562 7.3125 9.3125 C8.11300781 8.81363281 8.91351563 8.31476563 9.73828125 7.80078125 C12.51236949 5.80784481 12.51236949 5.80784481 15 1 C10.05 1 5.1 1 0 1 C0 0.67 0 0.34 0 0 Z " fill="#E7C3B0" transform="translate(89,251)"/>
<path d="M0 0 C0.33 0 0.66 0 1 0 C1 4.95 1 9.9 1 15 C1.66 15 2.32 15 3 15 C3 17.31 3 19.62 3 22 C3.66 22.33 4.32 22.66 5 23 C5 23.99 5 24.98 5 26 C5.66 26 6.32 26 7 26 C7.33 25.34 7.66 24.68 8 24 C8 25.98 8 27.96 8 30 C8.66 30.33 9.32 30.66 10 31 C9.505 32.485 9.505 32.485 9 34 C0.6605536 22.58386464 -0.45658438 13.78208415 0 0 Z " fill="#D19B8B" transform="translate(47,235)"/>
<path d="M0 0 C1.2065625 0.0309375 1.2065625 0.0309375 2.4375 0.0625 C2.1075 1.0525 1.7775 2.0425 1.4375 3.0625 C1.7675 4.0525 2.0975 5.0425 2.4375 6.0625 C1.51546291 8.42772558 0.52051035 10.76651807 -0.5625 13.0625 C-1.49673645 10.05218256 -1.60699911 9.19599732 -0.5625 6.0625 C-1.5525 6.0625 -2.5425 6.0625 -3.5625 6.0625 C-3.8925 6.7225 -4.2225 7.3825 -4.5625 8.0625 C-5.2225 7.7325 -5.8825 7.4025 -6.5625 7.0625 C-7.1875 5 -7.1875 5 -7.5625 3.0625 C-6.923125 2.753125 -6.28375 2.44375 -5.625 2.125 C-1.57454819 0.03840361 -1.57454819 0.03840361 0 0 Z " fill="#E1AF9F" transform="translate(109.5625,271.9375)"/>
<path d="M0 0 C1.9375 0.625 1.9375 0.625 4 2 C4.8125 5.0625 4.8125 5.0625 5 8 C4.67 8.33 4.34 8.66 4 9 C1.46458702 8.90913549 -1.03554784 8.7629055 -3.5625 8.5625 C-4.27341797 8.51029297 -4.98433594 8.45808594 -5.71679688 8.40429688 C-7.47821999 8.27425893 -9.23916173 8.13773103 -11 8 C-10.67 6.68 -10.34 5.36 -10 4 C-10 4.66 -10 5.32 -10 6 C-6.04 6 -2.08 6 2 6 C1.34 4.02 0.68 2.04 0 0 Z " fill="#351714" transform="translate(389,246)"/>
<path d="M0 0 C0.99 0.33 1.98 0.66 3 1 C1.61761648 4.10009769 0.01421141 6.28263873 -2.375 8.6875 C-2.96023437 9.28949219 -3.54546875 9.89148438 -4.1484375 10.51171875 C-6.12608914 12.10135013 -7.5214179 12.5905426 -10 13 C-10 12.01 -10 11.02 -10 10 C-7.5 7.8125 -7.5 7.8125 -5 6 C-4.34 6.33 -3.68 6.66 -3 7 C-3.33 6.01 -3.66 5.02 -4 4 C-2.68 2.68 -1.36 1.36 0 0 Z " fill="#E4C0AF" transform="translate(193,264)"/>
<path d="M0 0 C7.26 0 14.52 0 22 0 C22 0.99 22 1.98 22 3 C14.74 2.67 7.48 2.34 0 2 C0 1.34 0 0.68 0 0 Z " fill="#2C0E0C" transform="translate(428,268)"/>
<path d="M0 0 C4.75481646 0.57634139 7.97048212 2.55068521 12 5 C9 6 9 6 6.875 6.4375 C6.25625 6.623125 5.6375 6.80875 5 7 C4.67 7.66 4.34 8.32 4 9 C0 3.375 0 3.375 0 0 Z " fill="#E5B6A8" transform="translate(57,280)"/>
<path d="M0 0 C2.86724686 0.57344937 3.8614515 0.8614515 6 3 C6 3.99 6 4.98 6 6 C6.99 5.67 7.98 5.34 9 5 C10.32 7.31 11.64 9.62 13 12 C8.23439379 10.59835111 5.04117557 7.84588526 2 4 C2 3.34 2 2.68 2 2 C1.34 2 0.68 2 0 2 C0 1.34 0 0.68 0 0 Z " fill="#361B19" transform="translate(244,265)"/>
<path d="M0 0 C0.33 0.66 0.66 1.32 1 2 C0.109375 4.12890625 0.109375 4.12890625 -1.25 6.5625 C-1.68828125 7.36816406 -2.1265625 8.17382812 -2.578125 9.00390625 C-4 11 -4 11 -7 12 C-7 12.99 -7 13.98 -7 15 C-7.66 15 -8.32 15 -9 15 C-7.53205148 9.1282059 -4.26622657 4.26622657 0 0 Z " fill="#E5BDAB" transform="translate(135,214)"/>
<path d="M0 0 C0.66 0.33 1.32 0.66 2 1 C0.71034824 2.37562854 -0.62689293 3.70766393 -2 5 C-2.66 5 -3.32 5 -4 5 C-4 5.99 -4 6.98 -4 8 C-5.53125 9.38671875 -5.53125 9.38671875 -7.5 10.6875 C-8.47453125 11.34298828 -8.47453125 11.34298828 -9.46875 12.01171875 C-9.9740625 12.33785156 -10.479375 12.66398438 -11 13 C-11 9.06830895 -9.60580385 7.83572772 -7 5 C-6.34 5 -5.68 5 -5 5 C-5 4.34 -5 3.68 -5 3 C-2.625 1.3125 -2.625 1.3125 0 0 Z " fill="#401911" transform="translate(322,213)"/>
<path d="M0 0 C2.33984375 0.5546875 2.33984375 0.5546875 5.33984375 2.5546875 C1.17846112 2.63628324 -2.60740465 2.53717274 -6.66015625 1.5546875 C-6.66015625 2.2146875 -6.66015625 2.8746875 -6.66015625 3.5546875 C-8.31015625 3.5546875 -9.96015625 3.5546875 -11.66015625 3.5546875 C-8.41733772 -1.3095403 -5.25919332 -0.64850203 0 0 Z " fill="#3B251F" transform="translate(229.66015625,265.4453125)"/>
<path d="M0 0 C0.33 0.66 0.66 1.32 1 2 C0.29296875 3.83984375 0.29296875 3.83984375 -0.8125 5.9375 C-1.34810547 6.97197266 -1.34810547 6.97197266 -1.89453125 8.02734375 C-2.84989011 9.73213606 -3.91598646 11.3739797 -5 13 C-5.66 13 -6.32 13 -7 13 C-7.33 13.66 -7.66 14.32 -8 15 C-8 13.68 -8 12.36 -8 11 C-7.34 11 -6.68 11 -6 11 C-6 10.01 -6 9.02 -6 8 C-5.34 8 -4.68 8 -4 8 C-4.33 6.68 -4.66 5.36 -5 4 C-4.01 4 -3.02 4 -2 4 C-1.34 2.68 -0.68 1.36 0 0 Z " fill="#E4AF9C" transform="translate(121,256)"/>
<path d="M0 0 C0.66 0 1.32 0 2 0 C2.86555948 2.09950586 3.71711277 4.2047907 4.5625 6.3125 C5.03816406 7.48425781 5.51382813 8.65601563 6.00390625 9.86328125 C7 13 7 13 6 16 C5.3490741 14.75264433 4.70448331 13.50198168 4.0625 12.25 C3.70285156 11.55390625 3.34320313 10.8578125 2.97265625 10.140625 C2.04441818 8.09775567 1.46833422 6.18884624 1 4 C0.34 4.99 -0.32 5.98 -1 7 C-0.67 4.69 -0.34 2.38 0 0 Z " fill="#D3A695" transform="translate(123,249)"/>
<path d="M0 0 C1.134375 0.020625 2.26875 0.04125 3.4375 0.0625 C-0.15026609 2.45434406 -2.57874945 3.19004433 -6.79296875 3.16015625 C-7.59541016 3.15693359 -8.39785156 3.15371094 -9.22460938 3.15039062 C-10.05798828 3.14201172 -10.89136719 3.13363281 -11.75 3.125 C-12.59498047 3.12048828 -13.43996094 3.11597656 -14.31054688 3.11132812 C-16.39456155 3.09955403 -18.47853977 3.0816189 -20.5625 3.0625 C-20.5625 2.7325 -20.5625 2.4025 -20.5625 2.0625 C-19.41910156 2.00191406 -18.27570313 1.94132812 -17.09765625 1.87890625 C-15.60675695 1.79451572 -14.11587225 1.70986698 -12.625 1.625 C-11.87025391 1.58568359 -11.11550781 1.54636719 -10.33789062 1.50585938 C-6.49164671 1.28163888 -3.66184034 0.06424281 0 0 Z " fill="#E0B9A8" transform="translate(97.5625,278.9375)"/>
<path d="M0 0 C0.66 0 1.32 0 2 0 C1.27991594 4.60853797 -0.31295939 8.67237409 -2 13 C-2.33 13 -2.66 13 -3 13 C-3.44539877 4.2404908 -3.44539877 4.2404908 0 0 Z " fill="#3C1714" transform="translate(371,265)"/>
<path d="M0 0 C0 2 0 2 -1.05859375 3.63671875 C-4.0496667 5.7370899 -6.49017747 5.12650974 -10.0625 4.8125 C-11.93615234 4.66748047 -11.93615234 4.66748047 -13.84765625 4.51953125 C-17 4 -17 4 -19 2 C-17.66195313 2.03480469 -17.66195313 2.03480469 -16.296875 2.0703125 C-15.12640625 2.08835937 -13.9559375 2.10640625 -12.75 2.125 C-11.58984375 2.14820313 -10.4296875 2.17140625 -9.234375 2.1953125 C-5.74512208 1.98460882 -3.2946294 0 0 0 Z " fill="#441B18" transform="translate(349,265)"/>
<path d="M0 0 C2.90065771 1.45032886 3.35265712 3.4605293 4.6875 6.375 C5.14511719 7.35210937 5.60273438 8.32921875 6.07421875 9.3359375 C7 12 7 12 6 15 C4.98634107 13.44632634 3.98957744 11.88162164 3 10.3125 C2.443125 9.44238281 1.88625 8.57226562 1.3125 7.67578125 C-0.08325608 4.83026663 -0.26993648 3.1211406 0 0 Z " fill="#591B13" transform="translate(407,257)"/>
<path d="M0 0 C0.99 0.33 1.98 0.66 3 1 C3 2.98 3 4.96 3 7 C2.34 6.34 1.68 5.68 1 5 C-0.32 6.98 -1.64 8.96 -3 11 C-3.33 9.68 -3.66 8.36 -4 7 C-3.34 7 -2.68 7 -2 7 C-1.855625 6.21625 -1.71125 5.4325 -1.5625 4.625 C-1 2 -1 2 0 0 Z " fill="#3F1913" transform="translate(305,256)"/>
<path d="M0 0 C0 0.33 0 0.66 0 1 C-1.44632812 1.18175781 -1.44632812 1.18175781 -2.921875 1.3671875 C-4.81679688 1.61855469 -4.81679688 1.61855469 -6.75 1.875 C-8.00296875 2.03742188 -9.2559375 2.19984375 -10.546875 2.3671875 C-13.52507197 2.91296568 -15.38931976 3.59796802 -18 5 C-20.25 4.625 -20.25 4.625 -22 4 C-14.38989953 0.56799391 -8.33737789 -0.14570175 0 0 Z " fill="#160302" transform="translate(343,211)"/>
<path d="M0 0 C1.125 1.6875 1.125 1.6875 2 4 C1.1144582 7.0993963 0.28724116 8.71275884 -2 11 C-3.14947895 7.44706507 -3.0868937 6.20023331 -1.5625 2.6875 C-1.046875 1.800625 -0.53125 0.91375 0 0 Z " fill="#EAC4AF" transform="translate(51,224)"/>
<path d="M0 0 C2 2 2 2 3.25 4.3125 C5.43277414 7.66461743 7.8503866 9.55030069 11 12 C8 13 8 13 5 12 C3.4375 9.625 3.4375 9.625 2 7 C1.34 6.01 0.68 5.02 0 4 C0 2.68 0 1.36 0 0 Z " fill="#4E291F" transform="translate(319,254)"/>
<path d="M0 0 C0.99 0.66 1.98 1.32 3 2 C2.9375 4.1875 2.9375 4.1875 2 7 C-0.1717219 8.93157957 -2.52601047 10.48201687 -5 12 C-5 10.68 -5 9.36 -5 8 C-4.01 8 -3.02 8 -2 8 C-2 7.34 -2 6.68 -2 6 C-1.01 6 -0.02 6 1 6 C0.67 4.02 0.34 2.04 0 0 Z " fill="#D6AE99" transform="translate(112,214)"/>
<path d="M0 0 C-1.7624772 0.89171173 -3.53533791 1.76292656 -5.3125 2.625 C-6.79169922 3.35589844 -6.79169922 3.35589844 -8.30078125 4.1015625 C-9.19152344 4.39804688 -10.08226563 4.69453125 -11 5 C-11.99 4.34 -12.98 3.68 -14 3 C-9.491643 -0.00557133 -5.27839413 -1.63572214 0 0 Z " fill="#EED7C6" transform="translate(78,207)"/>
<path d="M0 0 C-0.66 0 -1.32 0 -2 0 C-2.66 1.32 -3.32 2.64 -4 4 C-4 3.34 -4 2.68 -4 2 C-8.62 2 -13.24 2 -18 2 C-18 1.67 -18 1.34 -18 1 C-17.15695313 0.93941406 -16.31390625 0.87882812 -15.4453125 0.81640625 C-14.34960938 0.73261719 -13.25390625 0.64882813 -12.125 0.5625 C-11.03445312 0.48128906 -9.94390625 0.40007812 -8.8203125 0.31640625 C-1.63306452 -0.48991935 -1.63306452 -0.48991935 0 0 Z " fill="#D4A794" transform="translate(93,286)"/>
<path d="M0 0 C4.96466917 1.16815745 8.2384416 2.35242821 12 6 C12 6.66 12 7.32 12 8 C6.80421104 6.63919813 3.86388964 4.58789752 0 1 C0 0.67 0 0.34 0 0 Z " fill="#DFAEA1" transform="translate(135,271)"/>
<path d="M0 0 C2.96052484 3.36423277 3.92289822 6.69159287 5 11 C2.525 10.01 2.525 10.01 0 9 C0 6.03 0 3.06 0 0 Z " fill="#37140F" transform="translate(402,245)"/>
<path d="M0 0 C1.875 0.125 1.875 0.125 4 1 C5.25 4.0625 5.25 4.0625 6 7 C5.34 7.66 4.68 8.32 4 9 C3.01 7.02 2.02 5.04 1 3 C0.34 3.66 -0.32 4.32 -1 5 C-0.67 3.35 -0.34 1.7 0 0 Z " fill="#3C1514" transform="translate(384,235)"/>
<path d="M0 0 C3.94139078 1.66751148 6.7892812 4.22710649 10 7 C9.67 7.66 9.34 8.32 9 9 C7.68 8.34 6.36 7.68 5 7 C5 6.01 5 5.02 5 4 C3.35 3.67 1.7 3.34 0 3 C0 2.01 0 1.02 0 0 Z " fill="#42261D" transform="translate(291,215)"/>
<path d="M0 0 C0.66 0 1.32 0 2 0 C2 0.66 2 1.32 2 2 C2.66 2 3.32 2 4 2 C4.33 3.65 4.66 5.3 5 7 C3.68 7 2.36 7 1 7 C0.67 4.69 0.34 2.38 0 0 Z " fill="#3A0B09" transform="translate(358,218)"/>
<path d="M0 0 C0.99 0 1.98 0 3 0 C1.50902342 3.7952131 -0.75700849 5.61042731 -4 8 C-4.33 7.01 -4.66 6.02 -5 5 C-4.34 5 -3.68 5 -3 5 C-3 4.34 -3 3.68 -3 3 C-2.34 3 -1.68 3 -1 3 C-0.67 2.01 -0.34 1.02 0 0 Z " fill="#DAB9A6" transform="translate(104,286)"/>
<path d="M0 0 C0.33 0 0.66 0 1 0 C1.3125 2.6875 1.3125 2.6875 1 6 C-1.5 8.875 -1.5 8.875 -4 11 C-3.5247412 9.35303396 -3.04468109 7.70745272 -2.5625 6.0625 C-2.29566406 5.14597656 -2.02882813 4.22945312 -1.75390625 3.28515625 C-1 1 -1 1 0 0 Z " fill="#3D1C1A" transform="translate(372,236)"/>
<path d="M0 0 C-0.33 0.99 -0.66 1.98 -1 3 C-4.3 3.33 -7.6 3.66 -11 4 C-6.57169656 0.67877242 -5.30490754 -0.13960283 0 0 Z " fill="#E8BEAA" transform="translate(153,205)"/>
<path d="M0 0 C0.12375 0.639375 0.2475 1.27875 0.375 1.9375 C0.684375 2.9584375 0.684375 2.9584375 1 4 C1.66 4.33 2.32 4.66 3 5 C2 6 2 6 -0.5625 6.0625 C-1.7690625 6.0315625 -1.7690625 6.0315625 -3 6 C-3.33 5.01 -3.66 4.02 -4 3 C-2.68 2.01 -1.36 1.02 0 0 Z " fill="#121110" transform="translate(211,273)"/>
<path d="M0 0 C1.32 0.33 2.64 0.66 4 1 C3.401875 1.7425 2.80375 2.485 2.1875 3.25 C0.41826778 5.47417764 -1.30860915 7.71662235 -3 10 C-2.67 7.69 -2.34 5.38 -2 3 C-1.34 3 -0.68 3 0 3 C0 2.01 0 1.02 0 0 Z " fill="#3C1C17" transform="translate(322,228)"/>
<path d="M0 0 C0.66 0.33 1.32 0.66 2 1 C0.19587357 4.26460973 -0.83394693 5.88929795 -4 8 C-4.66 7.34 -5.32 6.68 -6 6 C-4.02 4.02 -2.04 2.04 0 0 Z " fill="#E6C8B8" transform="translate(62,211)"/>
<path d="M0 0 C4.455 2.97 4.455 2.97 9 6 C8.01 6.33 7.02 6.66 6 7 C4.32260138 6.01810813 2.65532623 5.01866229 1 4 C0.01 4.495 0.01 4.495 -1 5 C-0.67 3.35 -0.34 1.7 0 0 Z " fill="#DDBFAC" transform="translate(69,256)"/>
<path d="M0 0 C0.94696598 2.55680815 1.04509772 3.83600828 0.3125 6.5 C-1.11219358 9.21370205 -2.73212969 10.95891672 -5 13 C-3.58192622 8.52761347 -1.88695626 4.28853694 0 0 Z " fill="#4B1E19" transform="translate(378,222)"/>
<path d="M0 0 C0.33 0 0.66 0 1 0 C1 1.98 1 3.96 1 6 C1.66 6.33 2.32 6.66 3 7 C2.67 7.99 2.34 8.98 2 10 C-2 5.375 -2 5.375 -2 2 C-1.34 2 -0.68 2 0 2 C0 1.34 0 0.68 0 0 Z " fill="#DFC3B3" transform="translate(54,259)"/>
<path d="M0 0 C0.66 0 1.32 0 2 0 C1.67 1.65 1.34 3.3 1 5 C0.34 5 -0.32 5 -1 5 C-1 5.99 -1 6.98 -1 8 C-1.66 8 -2.32 8 -3 8 C-2.25 2.25 -2.25 2.25 0 0 Z " fill="#280D0B" transform="translate(379,245)"/>
<path d="M0 0 C1.65 0 3.3 0 5 0 C3.35 2.64 1.7 5.28 0 8 C-1.09658936 4.71023192 -0.79953138 3.28696233 0 0 Z " fill="#E9BBAB" transform="translate(68,226)"/>
<path d="M0 0 C4.83256305 0.41421969 6.82679218 2.46413986 10 6 C7.69 5.67 5.38 5.34 3 5 C2.87625 4.360625 2.7525 3.72125 2.625 3.0625 C2.315625 2.0415625 2.315625 2.0415625 2 1 C1.34 0.67 0.68 0.34 0 0 Z " fill="#501A14" transform="translate(348,212)"/>
<path d="M0 0 C2 2 2 2 2.1953125 3.9453125 C2.13020833 5.96354167 2.06510417 7.98177083 2 10 C1.01 10 0.02 10 -1 10 C-0.67 6.7 -0.34 3.4 0 0 Z " fill="#4D291A" transform="translate(241,270)"/>
<path d="M0 0 C2.86724686 0.57344937 3.8614515 0.8614515 6 3 C5.625 5.125 5.625 5.125 5 7 C3.5 5.625 3.5 5.625 2 4 C2 3.34 2 2.68 2 2 C1.34 2 0.68 2 0 2 C0 1.34 0 0.68 0 0 Z " fill="#40170F" transform="translate(244,265)"/>
<path d="M0 0 C0.99 0.33 1.98 0.66 3 1 C3 2.65 3 4.3 3 6 C2.67 5.34 2.34 4.68 2 4 C1.34 4 0.68 4 0 4 C-0.33 4.99 -0.66 5.98 -1 7 C-1.04254356 5.00045254 -1.04080783 2.99958364 -1 1 C-0.67 0.67 -0.34 0.34 0 0 Z " fill="#2B0C0A" transform="translate(384,209)"/>
<path d="M0 0 C0.66 0.33 1.32 0.66 2 1 C2 1.99 2 2.98 2 4 C-0.31 4 -2.62 4 -5 4 C-3 1 -3 1 0 0 Z " fill="#F5E6D4" transform="translate(101,275)"/>
<path d="M0 0 C1.32 0 2.64 0 4 0 C4.33 1.65 4.66 3.3 5 5 C4.01 5 3.02 5 2 5 C1.34 3.35 0.68 1.7 0 0 Z " fill="#EEDCC6" transform="translate(56,266)"/>
<path d="M0 0 C0.33 0 0.66 0 1 0 C1 2.64 1 5.28 1 8 C-0.32 8 -1.64 8 -3 8 C-2.690625 7.236875 -2.38125 6.47375 -2.0625 5.6875 C-1.32106407 3.81210323 -0.63771783 1.91315348 0 0 Z " fill="#441813" transform="translate(362,259)"/>
<path d="M0 0 C1.875 0.5625 1.875 0.5625 4 2 C5.25 5.625 5.25 5.625 6 9 C0.42857143 3.85714286 0.42857143 3.85714286 0 0 Z " fill="#612523" transform="translate(308,263)"/>
<path d="M0 0 C0.33 0.99 0.66 1.98 1 3 C1.66 3 2.32 3 3 3 C3.33 4.65 3.66 6.3 4 8 C3.01 8.495 3.01 8.495 2 9 C0.14223235 5.86501708 -0.20140476 3.62528568 0 0 Z " fill="#331513" transform="translate(241,256)"/>
<path d="M0 0 C2.9375 1.25 2.9375 1.25 6 3 C6.33 4.32 6.66 5.64 7 7 C4.36 5.35 1.72 3.7 -1 2 C-0.67 1.34 -0.34 0.68 0 0 Z " fill="#FCEAD5" transform="translate(106,211)"/>
<path d="M0 0 C2.475 0.495 2.475 0.495 5 1 C4.01 2.485 4.01 2.485 3 4 C2.67 4.99 2.34 5.98 2 7 C0.5393715 4.35261084 0 3.10551666 0 0 Z " fill="#E6A492" transform="translate(57,280)"/>
<path d="M0 0 C4.455 0.99 4.455 0.99 9 2 C8.67 2.99 8.34 3.98 8 5 C2.25 3.375 2.25 3.375 0 0 Z " fill="#3B1B13" transform="translate(317,274)"/>
<path d="M0 0 C0 0.99 0 1.98 0 3 C-0.66 3 -1.32 3 -2 3 C-1.67 3.99 -1.34 4.98 -1 6 C-2.65 6 -4.3 6 -6 6 C-6 5.34 -6 4.68 -6 4 C-4.03852126 2.61061923 -2.03833424 1.2739589 0 0 Z " fill="#E3E0D9" transform="translate(178,257)"/>
</svg>
